<?xml version="1.0" encoding="UTF-8" standalone="no"?>
<!-- Generator: Adobe Illustrator 20.1.0, SVG Export Plug-In . SVG Version: 6.00 Build 0)  -->

<svg
   xmlns:dc="http://purl.org/dc/elements/1.1/"
   xmlns:cc="http://creativecommons.org/ns#"
   xmlns:rdf="http://www.w3.org/1999/02/22-rdf-syntax-ns#"
   xmlns:svg="http://www.w3.org/2000/svg"
   xmlns="http://www.w3.org/2000/svg"
   xmlns:xlink="http://www.w3.org/1999/xlink"
   xmlns:sodipodi="http://sodipodi.sourceforge.net/DTD/sodipodi-0.dtd"
   xmlns:inkscape="http://www.inkscape.org/namespaces/inkscape"
   version="1.1"
   id="Camada_1"
   x="0px"
   y="0px"
   viewBox="0 0 645.21861 721.97503"
   enable-background="new 0 0 595.28 841.89"
   xml:space="preserve"
   inkscape:version="0.48.5 r10040"
   width="100%"
   height="100%"
   sodipodi:docname="Flores.svg"><metadata
   id="metadata156"><rdf:RDF><cc:Work
       rdf:about=""><dc:format>image/svg+xml</dc:format><dc:type
         rdf:resource="http://purl.org/dc/dcmitype/StillImage" /></cc:Work></rdf:RDF></metadata><defs
   id="defs154"><filter
     inkscape:label="Diffuse light"
     inkscape:menu="ABCs"
     inkscape:menu-tooltip="Basic diffuse bevel to use for building textures"
     color-interpolation-filters="sRGB"
     id="filter3220"><feGaussianBlur
       stdDeviation="1.7"
       in="SourceGraphic"
       result="result0"
       id="feGaussianBlur3222" /><feDiffuseLighting
       diffuseConstant="0.5"
       surfaceScale="11"
       result="result5"
       id="feDiffuseLighting3224"
       stdDeviation="1"><feDistantLight
         id="feDistantLight3230"
         azimuth="225"
         elevation="30" /></feDiffuseLighting><feComposite
       in2="SourceGraphic"
       in="result5"
       result="result4"
       operator="in"
       id="feComposite3228" /></filter><linearGradient
     inkscape:collect="always"
     xlink:href="#SVGID_18_"
     id="linearGradient3233"
     gradientUnits="userSpaceOnUse"
     x1="112.0825"
     y1="420.91891"
     x2="221.01781"
     y2="361.60571"
     gradientTransform="translate(1.893932e-5,0)" /><linearGradient
     inkscape:collect="always"
     xlink:href="#SVGID_17_"
     id="linearGradient3236"
     gradientUnits="userSpaceOnUse"
     x1="167.4662"
     y1="330.04929"
     x2="274.50449"
     y2="320.5571"
     gradientTransform="translate(1.893932e-5,0)" /><linearGradient
     inkscape:collect="always"
     xlink:href="#SVGID_16_"
     id="linearGradient3239"
     gradientUnits="userSpaceOnUse"
     x1="258.4028"
     y1="128.4055"
     x2="292.09879"
     y2="254.4072"
     gradientTransform="translate(1.893932e-5,0)" /><linearGradient
     inkscape:collect="always"
     xlink:href="#SVGID_15_"
     id="linearGradient3242"
     gradientUnits="userSpaceOnUse"
     x1="453.42801"
     y1="250.31081"
     x2="369.5874"
     y2="295.98999"
     gradientTransform="translate(1.893932e-5,0)" /><linearGradient
     inkscape:collect="always"
     xlink:href="#SVGID_14_"
     id="linearGradient3245"
     gradientUnits="userSpaceOnUse"
     x1="536.5954"
     y1="278.50391"
     x2="442.61349"
     y2="306.2988"
     gradientTransform="translate(1.893932e-5,0)" /><linearGradient
     inkscape:collect="always"
     xlink:href="#SVGID_13_"
     id="linearGradient3248"
     gradientUnits="userSpaceOnUse"
     x1="420.4241"
     y1="530.242"
     x2="389.03491"
     y2="425.5029"
     gradientTransform="translate(1.893932e-5,0)" /><linearGradient
     inkscape:collect="always"
     xlink:href="#SVGID_12_"
     id="linearGradient3251"
     gradientUnits="userSpaceOnUse"
     x1="355.59271"
     y1="449.96039"
     x2="343.49301"
     y2="394.17569"
     gradientTransform="translate(1.893932e-5,0)" /><linearGradient
     inkscape:collect="always"
     xlink:href="#SVGID_11_"
     id="linearGradient3254"
     gradientUnits="userSpaceOnUse"
     x1="303.85959"
     y1="362.17319"
     x2="220.32491"
     y2="338.34521"
     gradientTransform="translate(1.893932e-5,0)" /><linearGradient
     inkscape:collect="always"
     xlink:href="#SVGID_10_"
     id="linearGradient3257"
     gradientUnits="userSpaceOnUse"
     x1="340.95569"
     y1="311.69211"
     x2="331.034"
     y2="384.58331"
     gradientTransform="translate(1.893932e-5,0)" /><linearGradient
     inkscape:collect="always"
     xlink:href="#SVGID_9_"
     id="linearGradient3260"
     gradientUnits="userSpaceOnUse"
     x1="370.43649"
     y1="334.29239"
     x2="395.405"
     y2="393.0488"
     gradientTransform="translate(1.893932e-5,0)" /><linearGradient
     inkscape:collect="always"
     xlink:href="#SVGID_8_"
     id="linearGradient3263"
     gradientUnits="userSpaceOnUse"
     x1="392.07681"
     y1="252.9285"
     x2="362.52579"
     y2="287.6181"
     gradientTransform="translate(1.893932e-5,0)" /><linearGradient
     inkscape:collect="always"
     xlink:href="#SVGID_7_"
     id="linearGradient3266"
     gradientUnits="userSpaceOnUse"
     x1="280.61871"
     y1="267.75391"
     x2="263.87881"
     y2="312.26089"
     gradientTransform="translate(1.893932e-5,0)" /><linearGradient
     inkscape:collect="always"
     xlink:href="#SVGID_6_"
     id="linearGradient3269"
     gradientUnits="userSpaceOnUse"
     x1="273.233"
     y1="266.7861"
     x2="293.01999"
     y2="266.7861"
     gradientTransform="translate(1.893932e-5,0)" /><linearGradient
     inkscape:collect="always"
     xlink:href="#SVGID_5_"
     id="linearGradient3272"
     gradientUnits="userSpaceOnUse"
     x1="319.39041"
     y1="233.42"
     x2="300.94601"
     y2="309.5369"
     gradientTransform="translate(1.893932e-5,0)" /><linearGradient
     inkscape:collect="always"
     xlink:href="#SVGID_4_"
     id="linearGradient3275"
     gradientUnits="userSpaceOnUse"
     x1="336.10541"
     y1="271.2435"
     x2="327.48911"
     y2="305.28891"
     gradientTransform="translate(1.893932e-5,0)" /><linearGradient
     inkscape:collect="always"
     xlink:href="#SVGID_3_"
     id="linearGradient3278"
     gradientUnits="userSpaceOnUse"
     x1="353.6059"
     y1="294.16769"
     x2="346.03171"
     y2="308.72699"
     gradientTransform="translate(1.893932e-5,0)" /><linearGradient
     inkscape:collect="always"
     xlink:href="#SVGID_2_"
     id="linearGradient3281"
     gradientUnits="userSpaceOnUse"
     x1="360.159"
     y1="271.8244"
     x2="354.3703"
     y2="291.40741"
     gradientTransform="translate(1.893932e-5,0)" /><linearGradient
     inkscape:collect="always"
     xlink:href="#SVGID_1_"
     id="linearGradient3284"
     gradientUnits="userSpaceOnUse"
     x1="333.70639"
     y1="334.90439"
     x2="378.5199"
     y2="308.98669"
     gradientTransform="translate(1.893932e-5,0)" /><radialGradient
     inkscape:collect="always"
     xlink:href="#SVGID_21_"
     id="radialGradient3307"
     gradientUnits="userSpaceOnUse"
     gradientTransform="matrix(-0.6897,0.7241,-0.2626,-0.2501,381.62101,481.4879)"
     cx="152.28439"
     cy="473.35141"
     r="145.9715" /><radialGradient
     inkscape:collect="always"
     xlink:href="#SVGID_20_"
     id="radialGradient3310"
     gradientUnits="userSpaceOnUse"
     gradientTransform="matrix(-0.0872,0.9962,-0.3381,-0.0296,449.96621,266.3003)"
     cx="256.33331"
     cy="506.66669"
     r="184.1826" /><radialGradient
     inkscape:collect="always"
     xlink:href="#SVGID_19_"
     id="radialGradient3313"
     gradientUnits="userSpaceOnUse"
     gradientTransform="matrix(0.6989,0.7152,-0.3089,0.3018,281.66251,117.3532)"
     cx="372.03171"
     cy="549.19672"
     r="107.9325" /><linearGradient
     inkscape:collect="always"
     xlink:href="#SVGID_1_"
     id="linearGradient3320"
     gradientUnits="userSpaceOnUse"
     gradientTransform="translate(1.893932e-5,0)"
     x1="333.70639"
     y1="334.90439"
     x2="378.5199"
     y2="308.98669" /><linearGradient
     inkscape:collect="always"
     xlink:href="#SVGID_2_"
     id="linearGradient3322"
     gradientUnits="userSpaceOnUse"
     gradientTransform="translate(1.893932e-5,0)"
     x1="360.159"
     y1="271.8244"
     x2="354.3703"
     y2="291.40741" /><linearGradient
     inkscape:collect="always"
     xlink:href="#SVGID_3_"
     id="linearGradient3324"
     gradientUnits="userSpaceOnUse"
     gradientTransform="translate(1.893932e-5,0)"
     x1="353.6059"
     y1="294.16769"
     x2="346.03171"
     y2="308.72699" /><linearGradient
     inkscape:collect="always"
     xlink:href="#SVGID_4_"
     id="linearGradient3326"
     gradientUnits="userSpaceOnUse"
     gradientTransform="translate(1.893932e-5,0)"
     x1="336.10541"
     y1="271.2435"
     x2="327.48911"
     y2="305.28891" /><linearGradient
     inkscape:collect="always"
     xlink:href="#SVGID_5_"
     id="linearGradient3328"
     gradientUnits="userSpaceOnUse"
     gradientTransform="translate(1.893932e-5,0)"
     x1="319.39041"
     y1="233.42"
     x2="300.94601"
     y2="309.5369" /><linearGradient
     inkscape:collect="always"
     xlink:href="#SVGID_6_"
     id="linearGradient3330"
     gradientUnits="userSpaceOnUse"
     gradientTransform="translate(1.893932e-5,0)"
     x1="273.233"
     y1="266.7861"
     x2="293.01999"
     y2="266.7861" /><linearGradient
     inkscape:collect="always"
     xlink:href="#SVGID_7_"
     id="linearGradient3332"
     gradientUnits="userSpaceOnUse"
     gradientTransform="translate(1.893932e-5,0)"
     x1="280.61871"
     y1="267.75391"
     x2="263.87881"
     y2="312.26089" /><linearGradient
     inkscape:collect="always"
     xlink:href="#SVGID_8_"
     id="linearGradient3334"
     gradientUnits="userSpaceOnUse"
     gradientTransform="translate(1.893932e-5,0)"
     x1="392.07681"
     y1="252.9285"
     x2="362.52579"
     y2="287.6181" /><linearGradient
     inkscape:collect="always"
     xlink:href="#SVGID_9_"
     id="linearGradient3336"
     gradientUnits="userSpaceOnUse"
     gradientTransform="translate(1.893932e-5,0)"
     x1="370.43649"
     y1="334.29239"
     x2="395.405"
     y2="393.0488" /><linearGradient
     inkscape:collect="always"
     xlink:href="#SVGID_10_"
     id="linearGradient3338"
     gradientUnits="userSpaceOnUse"
     gradientTransform="translate(1.893932e-5,0)"
     x1="340.95569"
     y1="311.69211"
     x2="331.034"
     y2="384.58331" /><linearGradient
     inkscape:collect="always"
     xlink:href="#SVGID_11_"
     id="linearGradient3340"
     gradientUnits="userSpaceOnUse"
     gradientTransform="translate(1.893932e-5,0)"
     x1="303.85959"
     y1="362.17319"
     x2="220.32491"
     y2="338.34521" /><linearGradient
     inkscape:collect="always"
     xlink:href="#SVGID_12_"
     id="linearGradient3342"
     gradientUnits="userSpaceOnUse"
     gradientTransform="translate(1.893932e-5,0)"
     x1="355.59271"
     y1="449.96039"
     x2="343.49301"
     y2="394.17569" /><linearGradient
     inkscape:collect="always"
     xlink:href="#SVGID_13_"
     id="linearGradient3344"
     gradientUnits="userSpaceOnUse"
     gradientTransform="translate(1.893932e-5,0)"
     x1="420.4241"
     y1="530.242"
     x2="389.03491"
     y2="425.5029" /><linearGradient
     inkscape:collect="always"
     xlink:href="#SVGID_14_"
     id="linearGradient3346"
     gradientUnits="userSpaceOnUse"
     gradientTransform="translate(1.893932e-5,0)"
     x1="536.5954"
     y1="278.50391"
     x2="442.61349"
     y2="306.2988" /><linearGradient
     inkscape:collect="always"
     xlink:href="#SVGID_15_"
     id="linearGradient3348"
     gradientUnits="userSpaceOnUse"
     gradientTransform="translate(1.893932e-5,0)"
     x1="453.42801"
     y1="250.31081"
     x2="369.5874"
     y2="295.98999" /><linearGradient
     inkscape:collect="always"
     xlink:href="#SVGID_16_"
     id="linearGradient3350"
     gradientUnits="userSpaceOnUse"
     gradientTransform="translate(1.893932e-5,0)"
     x1="258.4028"
     y1="128.4055"
     x2="292.09879"
     y2="254.4072" /><linearGradient
     inkscape:collect="always"
     xlink:href="#SVGID_17_"
     id="linearGradient3352"
     gradientUnits="userSpaceOnUse"
     gradientTransform="translate(1.893932e-5,0)"
     x1="167.4662"
     y1="330.04929"
     x2="274.50449"
     y2="320.5571" /><linearGradient
     inkscape:collect="always"
     xlink:href="#SVGID_18_"
     id="linearGradient3354"
     gradientUnits="userSpaceOnUse"
     gradientTransform="translate(1.893932e-5,0)"
     x1="112.0825"
     y1="420.91891"
     x2="221.01781"
     y2="361.60571" /><radialGradient
     inkscape:collect="always"
     xlink:href="#SVGID_19_"
     id="radialGradient3356"
     gradientUnits="userSpaceOnUse"
     gradientTransform="matrix(0.6989,0.7152,-0.3089,0.3018,281.66251,117.3532)"
     cx="372.03171"
     cy="549.19672"
     r="107.9325" /><radialGradient
     inkscape:collect="always"
     xlink:href="#SVGID_20_"
     id="radialGradient3358"
     gradientUnits="userSpaceOnUse"
     gradientTransform="matrix(-0.0872,0.9962,-0.3381,-0.0296,449.96621,266.3003)"
     cx="256.33331"
     cy="506.66669"
     r="184.1826" /><radialGradient
     inkscape:collect="always"
     xlink:href="#SVGID_21_"
     id="radialGradient3360"
     gradientUnits="userSpaceOnUse"
     gradientTransform="matrix(-0.6897,0.7241,-0.2626,-0.2501,381.62101,481.4879)"
     cx="152.28439"
     cy="473.35141"
     r="145.9715" /></defs><sodipodi:namedview
   pagecolor="#ffffff"
   bordercolor="#666666"
   borderopacity="1"
   objecttolerance="10"
   gridtolerance="10"
   guidetolerance="10"
   inkscape:pageopacity="0"
   inkscape:pageshadow="2"
   inkscape:window-width="1536"
   inkscape:window-height="803"
   id="namedview152"
   showgrid="false"
   inkscape:zoom="0.39643469"
   inkscape:cx="465.75346"
   inkscape:cy="324.5454"
   inkscape:window-x="-8"
   inkscape:window-y="-8"
   inkscape:window-maximized="1"
   inkscape:current-layer="layer3"
   fit-margin-top="0"
   fit-margin-left="0"
   fit-margin-right="0"
   fit-margin-bottom="0" />
<linearGradient
   id="SVGID_1_"
   gradientUnits="userSpaceOnUse"
   x1="333.70639"
   y1="334.90439"
   x2="378.5199"
   y2="308.98669">
	<stop
   offset="0"
   style="stop-color:#C23435"
   id="stop4" />
	<stop
   offset="1"
   style="stop-color:#611718"
   id="stop6" />
</linearGradient>

<linearGradient
   id="SVGID_2_"
   gradientUnits="userSpaceOnUse"
   x1="360.159"
   y1="271.8244"
   x2="354.3703"
   y2="291.40741">
	<stop
   offset="0"
   style="stop-color:#C23435"
   id="stop11" />
	<stop
   offset="1"
   style="stop-color:#611718"
   id="stop13" />
</linearGradient>

<linearGradient
   id="SVGID_3_"
   gradientUnits="userSpaceOnUse"
   x1="353.6059"
   y1="294.16769"
   x2="346.03171"
   y2="308.72699">
	<stop
   offset="0"
   style="stop-color:#C23435"
   id="stop18" />
	<stop
   offset="1"
   style="stop-color:#611718"
   id="stop20" />
</linearGradient>

<linearGradient
   id="SVGID_4_"
   gradientUnits="userSpaceOnUse"
   x1="336.10541"
   y1="271.2435"
   x2="327.48911"
   y2="305.28891">
	<stop
   offset="0"
   style="stop-color:#C23435"
   id="stop25" />
	<stop
   offset="1"
   style="stop-color:#611718"
   id="stop27" />
</linearGradient>

<linearGradient
   id="SVGID_5_"
   gradientUnits="userSpaceOnUse"
   x1="319.39041"
   y1="233.42"
   x2="300.94601"
   y2="309.5369">
	<stop
   offset="0"
   style="stop-color:#C23435"
   id="stop32" />
	<stop
   offset="1"
   style="stop-color:#611718"
   id="stop34" />
</linearGradient>

<linearGradient
   id="SVGID_6_"
   gradientUnits="userSpaceOnUse"
   x1="273.233"
   y1="266.7861"
   x2="293.01999"
   y2="266.7861">
	<stop
   offset="0"
   style="stop-color:#C23435"
   id="stop39" />
	<stop
   offset="1"
   style="stop-color:#611718"
   id="stop41" />
</linearGradient>

<linearGradient
   id="SVGID_7_"
   gradientUnits="userSpaceOnUse"
   x1="280.61871"
   y1="267.75391"
   x2="263.87881"
   y2="312.26089">
	<stop
   offset="0"
   style="stop-color:#C23435"
   id="stop46" />
	<stop
   offset="1"
   style="stop-color:#611718"
   id="stop48" />
</linearGradient>

<linearGradient
   id="SVGID_8_"
   gradientUnits="userSpaceOnUse"
   x1="392.07681"
   y1="252.9285"
   x2="362.52579"
   y2="287.6181">
	<stop
   offset="0"
   style="stop-color:#C23435"
   id="stop53" />
	<stop
   offset="1"
   style="stop-color:#611718"
   id="stop55" />
</linearGradient>

<linearGradient
   id="SVGID_9_"
   gradientUnits="userSpaceOnUse"
   x1="370.43649"
   y1="334.29239"
   x2="395.405"
   y2="393.0488">
	<stop
   offset="0"
   style="stop-color:#C23435"
   id="stop60" />
	<stop
   offset="1"
   style="stop-color:#611718"
   id="stop62" />
</linearGradient>

<linearGradient
   id="SVGID_10_"
   gradientUnits="userSpaceOnUse"
   x1="340.95569"
   y1="311.69211"
   x2="331.034"
   y2="384.58331">
	<stop
   offset="0"
   style="stop-color:#C23435"
   id="stop67" />
	<stop
   offset="1"
   style="stop-color:#611718"
   id="stop69" />
</linearGradient>

<linearGradient
   id="SVGID_11_"
   gradientUnits="userSpaceOnUse"
   x1="303.85959"
   y1="362.17319"
   x2="220.32491"
   y2="338.34521">
	<stop
   offset="0"
   style="stop-color:#C23435"
   id="stop74" />
	<stop
   offset="1"
   style="stop-color:#611718"
   id="stop76" />
</linearGradient>

<linearGradient
   id="SVGID_12_"
   gradientUnits="userSpaceOnUse"
   x1="355.59271"
   y1="449.96039"
   x2="343.49301"
   y2="394.17569">
	<stop
   offset="0"
   style="stop-color:#C23435"
   id="stop81" />
	<stop
   offset="1"
   style="stop-color:#611718"
   id="stop83" />
</linearGradient>

<linearGradient
   id="SVGID_13_"
   gradientUnits="userSpaceOnUse"
   x1="420.4241"
   y1="530.242"
   x2="389.03491"
   y2="425.5029">
	<stop
   offset="0"
   style="stop-color:#C23435"
   id="stop88" />
	<stop
   offset="1"
   style="stop-color:#611718"
   id="stop90" />
</linearGradient>

<linearGradient
   id="SVGID_14_"
   gradientUnits="userSpaceOnUse"
   x1="536.5954"
   y1="278.50391"
   x2="442.61349"
   y2="306.2988">
	<stop
   offset="0"
   style="stop-color:#C23435"
   id="stop95" />
	<stop
   offset="1"
   style="stop-color:#611718"
   id="stop97" />
</linearGradient>

<linearGradient
   id="SVGID_15_"
   gradientUnits="userSpaceOnUse"
   x1="453.42801"
   y1="250.31081"
   x2="369.5874"
   y2="295.98999">
	<stop
   offset="0"
   style="stop-color:#C23435"
   id="stop102" />
	<stop
   offset="1"
   style="stop-color:#611718"
   id="stop104" />
</linearGradient>

<linearGradient
   id="SVGID_16_"
   gradientUnits="userSpaceOnUse"
   x1="258.4028"
   y1="128.4055"
   x2="292.09879"
   y2="254.4072">
	<stop
   offset="0"
   style="stop-color:#C23435"
   id="stop109" />
	<stop
   offset="1"
   style="stop-color:#611718"
   id="stop111" />
</linearGradient>

<linearGradient
   id="SVGID_17_"
   gradientUnits="userSpaceOnUse"
   x1="167.4662"
   y1="330.04929"
   x2="274.50449"
   y2="320.5571">
	<stop
   offset="0"
   style="stop-color:#C23435"
   id="stop116" />
	<stop
   offset="1"
   style="stop-color:#611718"
   id="stop118" />
</linearGradient>

<linearGradient
   id="SVGID_18_"
   gradientUnits="userSpaceOnUse"
   x1="112.0825"
   y1="420.91891"
   x2="221.01781"
   y2="361.60571">
	<stop
   offset="0"
   style="stop-color:#C23435"
   id="stop123" />
	<stop
   offset="1"
   style="stop-color:#611718"
   id="stop125" />
</linearGradient>

<radialGradient
   id="SVGID_19_"
   cx="372.03171"
   cy="549.19672"
   r="107.9325"
   gradientTransform="matrix(0.6989,0.7152,-0.3089,0.3018,281.6625,117.3532)"
   gradientUnits="userSpaceOnUse">
	<stop
   offset="0"
   style="stop-color:#154522"
   id="stop130" />
	<stop
   offset="1"
   style="stop-color:#2B9543"
   id="stop132" />
</radialGradient>

<radialGradient
   id="SVGID_20_"
   cx="256.33331"
   cy="506.66669"
   r="184.1826"
   gradientTransform="matrix(-0.0872,0.9962,-0.3381,-0.0296,449.9662,266.3003)"
   gradientUnits="userSpaceOnUse">
	<stop
   offset="0"
   style="stop-color:#154522"
   id="stop137" />
	<stop
   offset="1"
   style="stop-color:#2B9543"
   id="stop139" />
</radialGradient>

<radialGradient
   id="SVGID_21_"
   cx="152.28439"
   cy="473.35141"
   r="145.9715"
   gradientTransform="matrix(-0.6897,0.7241,-0.2626,-0.2501,381.621,481.4879)"
   gradientUnits="userSpaceOnUse">
	<stop
   offset="0"
   style="stop-color:#154522"
   id="stop144" />
	<stop
   offset="1"
   style="stop-color:#2B9543"
   id="stop146" />
</radialGradient>


<g
   inkscape:groupmode="layer"
   id="layer1"
   inkscape:label="outlines"
   style="display:inline"
   transform="translate(25.190316,-57.186736)"><path
     transform="translate(2.840898e-5,0)"
     d="M 561.37,331.14 C 548.98,306.67 539.9,280.84 533.91,254 c -0.75,-3.32 -1.18,-6.91 -2.77,-9.83 -10.25,-18.88 -25.38,-32.81 -44.76,-41.86 -16.57,-7.74 -34.24,-11.07 -52.5,-10.86 -3.58,0.04 -5.22,-1.28 -7.03,-4.13 -3.49,-5.52 -7.06,-11.17 -11.56,-15.83 -12.56,-12.95 -28.44,-20.28 -45.73,-24.34 -19.67,-4.62 -38.7,-10.75 -56.68,-20.08 -5.94,-3.09 -11.95,-6.85 -18.36,-8.09 -11.75,-2.28 -23.86,-2.29 -35.62,0.76 -22.62,5.87 -39.59,20 -54.29,37.48 -3.43,4.07 -7.18,8.29 -11.65,11.01 -7.47,4.54 -15.48,8.36 -23.57,11.71 -10.75,4.46 -20.76,9.89 -28.2,18.96 -8.34,10.17 -9.82,22.43 -8.83,35.03 0.46,5.95 1.83,11.83 2.83,17.95 -0.67,-0.03 -1.31,-0.03 -1.93,-0.09 -19.96,-2.01 -37.3,4.24 -51.59,17.87 -9.96,9.49 -14.55,22.13 -16.01,35.69 -0.64,5.91 -0.48,11.62 3.74,17.06 12.46,16.07 20.36,34.63 27.4,53.54 6.74,18.12 13.32,36.29 20.14,54.36 0.91,2.4 -0.49,2.96 -1.73,4.07 -10.27,9.22 -21.12,17.88 -30.65,27.81 -28.27,29.45 -47.24,63.99 -54.26,104.53 -1.29,7.47 -1.6,15.17 -1.72,22.77 -0.11,7.22 4.04,10.99 10.99,11.21 25.26,0.79 50.16,-2.09 74.89,-6.96 14.51,-2.85 28.52,-7.21 42.23,-12.67 3.18,-1.27 6.69,-1.66 10.12,-2.47 1.37,10.21 2.41,19.61 3.92,28.93 3.83,23.75 11.61,46.25 24.02,66.8 6.61,10.96 14.97,20.92 23.02,30.96 4.77,5.95 10.46,11.14 18.28,13.17 3.55,0.93 6.52,0.92 9.2,-2.22 3.49,-4.1 7.49,-7.77 11.08,-11.79 19.21,-21.49 36.01,-44.64 48.03,-70.99 4.19,-9.18 8.11,-18.48 12.23,-27.9 2.06,1.6 4.15,3.19 6.2,4.82 40.11,32.14 85.36,51.99 136.77,57.02 6.59,0.64 13.18,0.77 19.31,-2.37 2.53,-1.3 4.25,-2.8 3.82,-6.37 -4.84,-40.45 -17.99,-78.02 -38.62,-113.05 -3.05,-5.19 -6.41,-10.2 -9.46,-15.02 8.38,-6.44 16.47,-12.92 24.85,-19 4.23,-3.06 8.8,-5.82 13.56,-7.92 5.43,-2.38 11.39,-4.04 17.23,-1.61 5.13,2.14 9.48,0.74 13.86,-1.6 2.32,-1.24 4.67,-2.49 6.75,-4.08 7.5,-5.71 14.66,-12 17.99,-21.01 5.59,-15.11 5.57,-30.59 -0.59,-45.51 -3.32,-8.05 -8.17,-15.46 -12.57,-23.6 2.21,-1.19 4.81,-2.75 7.54,-4.01 12.59,-5.83 23.76,-13.44 32.27,-24.63 10.95,-14.39 14.65,-29.14 5.87,-46.48 z M 144.74,213.13 c 4.79,-11.87 14.57,-18.65 25.89,-23.5 6.04,-2.59 12.28,-4.75 18.2,-7.59 3.22,-1.54 6.31,-3.73 8.84,-6.25 12.7,-12.61 25.08,-25.47 40.09,-35.56 17.86,-11.99 36.99,-16.31 57.77,-10.77 7.67,2.04 14.82,6.02 22.19,9.16 3.15,1.34 6.38,2.57 9.34,4.25 12.97,7.34 27.71,8.82 41.69,12.8 12.18,3.47 24.09,7.65 34.32,15.5 9.17,7.03 16.09,15.76 20.3,27.07 -9.84,1.92 -19.47,3.88 -29.15,5.57 -0.96,0.16 -2.35,-1.2 -3.33,-2.09 -3.01,-2.74 -5.88,-5.68 -8.85,-8.47 -0.04,-0.03 -0.07,-0.07 -0.11,-0.1 -2.34,-2.2 -4.74,-4.31 -7.34,-6.15 -8.37,-5.95 -17.8,-5.23 -26.64,-0.83 -7.74,3.86 -15.19,8.37 -22.54,12.97 -8.84,5.53 -18.22,9.4 -28.55,10.81 -11.32,1.54 -20.05,7.23 -27.4,15.18 -0.53,0.57 -1.05,1.14 -1.56,1.73 -0.52,0.59 -1.02,1.19 -1.52,1.8 -1,1.21 -1.94,2.46 -2.94,3.74 -5.6,-2.96 -10.92,-6.09 -16.5,-8.65 -1.05,-0.49 -2.11,-0.95 -3.17,-1.38 -0.44,-0.19 -0.88,-0.37 -1.32,-0.54 -11.89,-4.69 -24.12,-6.17 -36.14,0.39 -2.99,1.64 -5.76,3.44 -8.3,5.42 -0.34,0.27 -0.68,0.54 -1.02,0.81 -10.38,8.49 -16.67,20.01 -18.4,34.47 -0.41,3.36 -1.08,6.68 -1.67,10.28 -8.13,-4.27 -16.1,-8.05 -23.59,-12.59 -3.08,-1.87 -6.16,-4.99 -7.5,-8.26 -5.26,-12.81 -6.39,-26.09 -1.09,-39.22 z m 161.77,176.06 c -0.97,-20.82 -6.14,-40.23 -19.22,-57.01 -0.85,-1.1 -1.14,-3.83 -0.4,-4.78 4.96,-6.28 11.33,-10.69 19.53,-11.12 5.06,-0.26 9.34,3.27 11.41,7.99 0.15,0.33 0.28,0.65 0.4,0.99 0.12,0.34 0.23,0.68 0.33,1.02 0.68,2.36 1.96,5.34 3.88,6.44 12.75,7.3 26.21,11.49 41.06,7.23 8.82,-2.53 17.76,-14.66 17.99,-24.4 0.05,-1.95 0.01,-3.91 0.01,-6.37 8.82,5.19 11.65,14.23 8.05,24.37 -2.72,7.68 -7.09,14.31 -12.7,20.22 -7.79,8.2 -15.51,16.46 -22.95,24.97 -2.47,2.82 -4.1,6.41 -5.93,9.75 -2.73,5.02 -6.65,8.51 -12.31,9.6 -5.29,1.01 -10.63,1.71 -15.95,2.54 -1.87,0.3 -3.74,0.59 -5.65,0.89 h -0.01 c -2.42,0.38 -4.9,0.77 -7.51,1.18 0,-4.42 0.19,-8.97 -0.03,-13.51 z m -58.63,-95.1 c 0.12,0.49 0.27,0.96 0.42,1.43 2.34,7.03 7.99,12.08 14.28,16.58 9.01,6.43 16.48,13.78 22.46,22.03 8.73,12.07 14.29,26.07 16.84,41.97 1.48,9.26 2.2,18.47 1.02,26.38 -6.96,3.03 -13.08,5.49 -19.02,8.34 -7.89,3.78 -11.2,3.78 -16.28,-0.92 -0.89,-0.82 -1.84,-1.79 -2.87,-2.91 -11.08,-12.01 -20.62,-24.97 -26.08,-40.51 -5.3,-15.09 -8.11,-30.28 -6.3,-45.49 0.82,-6.88 2.59,-13.77 5.5,-20.66 2.15,-5.1 5.43,-9.72 8.19,-14.56 0.41,0.14 0.81,0.29 1.21,0.44 -0.23,2.88 0.02,5.49 0.63,7.88 z m 106.81,-4.46 c -1.75,-0.63 -3.79,-0.99 -5.62,-0.78 -4.27,0.5 -8.49,1.41 -12.73,2.16 -0.33,-0.26 -0.66,-0.53 -0.99,-0.79 1.33,-2.52 2.04,-5.98 4.12,-7.39 5.47,-3.69 11.25,-7.41 17.46,-9.39 6.04,-1.92 11.62,1.17 15.31,6.47 4.18,5.98 1.77,11.82 -1,17.47 -0.73,1.49 -2.02,2.7 -3.38,4.45 -3.45,-5.7 -7.34,-10.1 -13.17,-12.2 z m 6.43,16.08 c -2.9,1.5 -5.63,3.4 -8.64,4.64 -5.43,2.25 -12.5,-2.2 -14.45,-8.81 -1.82,-6.21 1.55,-9.5 10.43,-9.51 5.42,0.28 10.47,2.43 13.79,7.93 1.43,2.38 1.75,4.26 -1.13,5.75 z m -28.36,-15.37 v 0.01 c 0.09,1.71 0.34,3.51 0.63,5.39 1.01,6.43 3.79,11.24 8.63,15.21 0.88,0.72 1.55,1.69 2.76,3.04 -5.09,0.99 -9.63,1.87 -14.54,2.83 -1.18,-3.89 -2.25,-7.52 -3.39,-11.12 -3.3,-10.4 -6.53,-20.82 -10.02,-31.16 -1.04,-3.08 -0.01,-4.58 2.6,-5.89 6.87,-3.43 15.88,-1.12 20.99,5.29 0.5,0.63 0.96,1.29 1.38,2 -7.83,3.85 -9.35,8.64 -9.04,14.4 z m 33.79,15.98 c 0.95,-0.76 1.9,-1.51 2.84,-2.25 2.84,-2.23 5.61,-4.35 8,-6.23 0.54,8.85 2.74,19.96 -3.71,29.98 -4.2,6.54 -10.96,9.1 -18.46,9.82 -11.63,1.1 -22,-2.79 -31.77,-8.5 -1.29,-0.76 -1.85,-2.79 -2.61,-4.47 -0.11,-0.24 -0.22,-0.47 -0.34,-0.69 1.5,-0.72 2.93,-1.83 4.5,-2.09 14.86,-2.52 29.39,-5.85 41.55,-15.57 z m 48.55,14 c -2.65,12.5 -5.93,23.59 -11.36,34 -7.18,13.77 -16.25,26.05 -27.93,36.38 -2.37,2.09 -4.69,3.43 -7.93,3.67 -6.91,0.53 -13.78,1.43 -21.55,2.27 19.07,-29.14 43.34,-52.49 68.77,-76.32 z m -3.94,-1.14 c -5.44,5.66 -11.48,10.74 -16.49,15.34 0,-1.97 0.05,-5.42 -0.01,-8.87 -0.12,-7.1 -1.84,-13.14 -8.17,-17.78 -2.8,-2.05 -4.22,-6.46 -5.42,-10.08 -1.56,-4.71 -2.03,-9.77 -3.42,-14.56 -3.82,-13.23 -18.81,-18.17 -30.13,-10.2 -0.86,0.61 -2.56,0.26 -3.79,0 -0.33,-0.07 -0.63,-0.31 -0.91,-0.62 -0.29,-0.31 -0.54,-0.67 -0.77,-0.99 -2.89,-4.06 -6.04,-7.53 -11.66,-7.48 -4.89,0.04 -9.77,-0.17 -14.1,2.69 -0.18,0.12 -0.49,0.05 -0.73,0.06 -1.37,-4.91 0.23,-11.71 3.39,-16.42 1.09,-1.62 2.36,-2.99 3.75,-3.95 5.38,-3.71 16.01,-3.34 21.25,1.1 1.69,1.43 2.89,3.7 3.75,5.8 2.04,4.96 4.84,6.71 9.46,4.25 4.92,-2.62 9.72,-3.75 14.44,-3.86 0.26,-0.01 0.51,-0.01 0.77,-0.01 8.32,0 16.39,3.1 24.35,6.68 5.03,2.26 8.62,6.16 11.36,10.66 1.24,2.04 2.31,4.21 3.26,6.4 4.54,10.48 7.38,21.5 4.29,33.01 -0.85,3.14 -2.27,6.54 -4.47,8.83 z M 316.54,248.5 c -0.64,0.97 -1.25,1.96 -1.78,2.98 -3.54,6.85 -3.91,14.3 -2.05,21.52 2.32,9 5.54,17.77 8.43,26.61 1.83,5.59 3.78,11.15 6.04,17.79 -3.75,0 -6.63,0.04 -9.51,-0.04 -0.61,-0.02 -1.27,-0.38 -1.81,-0.74 -9.26,-6.26 -17.54,-4.13 -25.34,2.83 -1.26,1.12 -2.79,1.92 -4.66,3.17 -0.31,-3.96 -0.21,-7.52 -0.92,-10.91 -0.18,-0.85 -0.36,-1.69 -0.55,-2.53 -1.7,-7.73 -3.68,-15.39 -5.37,-23.12 -0.29,-1.36 0.09,-3.2 0.84,-4.39 3.66,-5.72 7.66,-11.22 11.32,-16.94 1.31,-2.05 2.47,-4.19 3.64,-6.32 0.01,-0.03 0.03,-0.05 0.04,-0.08 1.16,-2.1 2.34,-4.2 3.69,-6.17 1.01,-1.46 2.09,-2.77 3.26,-3.9 4.68,-4.56 10.64,-6.32 18.07,-4.58 -1.09,1.64 -2.26,3.21 -3.34,4.82 z m -40.11,30.96 c -1.04,-2.22 -1.83,-4.38 -2.37,-6.48 -0.07,-0.3 -0.14,-0.6 -0.21,-0.9 -1.17,-5.31 -0.69,-10.33 1.56,-15.41 0.39,-0.88 1.37,-2.03 2.16,-2.11 5.02,-0.47 10.2,-1.46 15.45,2.75 -5.5,7.35 -10.79,14.42 -16.59,22.15 z m 5.11,30.34 c 1.1,4.73 0.84,9.78 1.18,14.44 -8.8,-7.04 -17.47,-13.71 -25.83,-20.74 -3.07,-2.58 -5.15,-5.34 -6.22,-8.28 -0.15,-0.42 -0.28,-0.85 -0.39,-1.28 -0.95,-3.68 -0.37,-7.64 1.76,-11.88 1.57,-3.14 4.79,-5.44 7.23,-8.14 1.23,-1.37 2.46,-2.75 3.68,-4.11 2.23,-2.49 4.43,-4.96 6.57,-7.36 0.71,3.19 1.4,6.63 2.2,10.12 0.07,0.3 0.13,0.6 0.21,0.9 0.32,1.45 0.68,2.92 1.06,4.38 2.79,10.67 6.05,21.22 8.55,31.95 z m -19.89,-42.05 c -0.13,0.18 -0.27,0.35 -0.42,0.52 -0.44,0.5 -0.97,0.96 -1.53,1.31 -17.81,11.53 -26.84,28.56 -29.72,48.96 -0.1,0.72 -0.2,1.44 -0.28,2.15 -3.9,32 6.43,59.54 28.43,83.06 2.53,2.7 5.22,5.26 7.93,7.8 0.04,0.03 0.07,0.07 0.11,0.1 1.64,1.55 3.3,3.09 4.92,4.65 -12.32,10.91 -35.75,16.3 -51.1,2.37 -3.85,-3.49 -6.56,-8.23 -10.17,-12.03 -5.96,-6.25 -12.26,-12.18 -18.35,-18.31 -1.4,-1.4 -2.74,-2.88 -4.03,-4.41 -13.67,-16.21 -21.35,-39.29 -19.78,-61.77 0.59,-8.41 2.47,-16.73 5.82,-24.58 3.17,-7.46 4.53,-15.66 6.33,-23.71 0.56,-2.52 1.17,-5.03 1.88,-7.49 2.47,-8.53 4.99,-17.19 8.76,-25.18 2.11,-4.47 5.12,-8.14 8.68,-11.04 0.24,-0.19 0.48,-0.38 0.72,-0.57 8.73,-6.73 20.59,-9.15 31.16,-8.08 3.55,0.36 7.1,1.29 10.55,2.64 0.42,0.17 0.85,0.34 1.27,0.52 13.03,5.53 24.58,17 30.13,26.82 -4.01,5.78 -7.63,11.05 -11.31,16.27 z m 24.69,146.91 c 4.33,-2.21 8.81,-4.13 13.23,-6.15 4.82,-2.19 9.83,-3.41 14.92,-4.22 5.76,-0.93 11.63,-1.35 17.44,-2.11 15.84,-2.08 31.67,-4.15 47.5,-6.26 15.44,-2.06 30.87,-4.16 46.29,-6.34 8.42,-1.2 16.67,-3.62 24.91,-5.47 4.06,5.86 6.74,11.48 7.82,17.02 1.56,7.91 -0.15,15.64 -5.76,23.6 -3.01,4.26 -9.04,7.53 -14.28,8.82 -8.19,2.02 -16.89,2.73 -25.36,2.65 -8.16,-0.08 -16.24,0.23 -24.21,1.07 -0.01,0 -0.02,0 -0.03,0 -15,1.56 -29.65,5 -43.85,11.28 -11.89,5.25 -23.98,10.19 -36.32,14.25 -14.33,4.7 -29.09,5.51 -43.03,-1.48 -6.84,-3.44 -13.24,-7.56 -18.16,-13.22 -2.58,-2.97 -4.75,-6.36 -6.38,-10.29 -0.79,-1.92 -1.74,-3.77 -2.95,-6.37 17.95,-1.39 33.1,-9.04 48.22,-16.78 z m 146.28,-30.65 c -17.82,3.32 -35.62,6.74 -53.43,10.12 -0.16,-0.31 -0.32,-0.62 -0.48,-0.94 0.58,-0.7 1.07,-1.5 1.75,-2.09 18.66,-16.36 29.54,-37.32 35.92,-60.92 1.37,-5.07 2.88,-10.17 3.54,-15.36 2.16,-16.78 -0.58,-32.27 -9.56,-45.69 -1.98,-2.95 -4.26,-5.8 -6.85,-8.55 -5.86,-6.2 -14.01,-8.8 -22.53,-9.17 -2.88,-0.12 -5.77,-0.21 -8.64,-0.16 -0.26,0 -0.51,0 -0.77,0.01 -5.26,0.12 -10.48,0.71 -15.61,2.4 -0.86,0.28 -2.47,-0.37 -3.12,-1.12 -1.46,-1.67 -2.43,-3.75 -3.78,-5.52 -4.85,-6.37 -11.75,-8.57 -20.1,-6.16 -4.29,1.24 -8,0.63 -12.16,-1.03 -2.65,-1.05 -6.9,-0.66 -9.32,0.85 -2.5,1.56 -4.81,3.42 -7.13,5.43 -2.33,2 -4.67,4.15 -7.22,6.28 -3.78,-1.73 -8.82,-2.68 -14.16,-1.24 -0.75,0.2 -2.1,-0.35 -2.62,-0.99 -3.97,-4.9 -7.79,-9.92 -11.62,-14.84 1.49,-2.66 3.16,-5.07 5.02,-7.23 0.62,-0.72 1.26,-1.41 1.92,-2.08 4.41,-4.43 9.77,-7.63 16.09,-9.59 9.54,-2.94 19.18,-5.6 28.76,-8.42 8.85,-2.61 16.37,-7.22 23.33,-13.43 11.08,-9.9 29.72,-10.35 40.17,-0.31 0.18,0.18 0.36,0.36 0.54,0.54 0.53,0.55 1.04,1.12 1.53,1.73 15.94,19.91 31.96,39.75 48.17,59.43 2.01,2.45 4.03,4.89 6.05,7.33 9.97,12.05 20.69,23.47 30.85,35.37 1.24,1.45 2.28,2.99 3.15,4.6 2.61,4.84 3.74,10.32 4.19,15.85 1.45,17.73 -6.13,32.59 -14.98,47.21 -6.31,10.42 -15.44,15.55 -26.9,17.69 z M 100.24,361.13 c -5.4,-12.66 -11.87,-24.91 -18.56,-36.95 -3.31,-5.96 -5.46,-11.53 -4.53,-18.51 2.38,-17.85 9.4,-32.17 27.14,-39.38 8.29,-3.37 16.79,-5.19 25.75,-4.72 15.32,0.79 29.43,5.08 42.04,14.08 2.41,1.72 2.57,3.2 1.69,5.83 -4.45,13.19 -7.83,26.67 -8.77,40.51 -0.13,1.78 -0.21,3.57 -0.25,5.37 -0.42,19.66 3.62,38.06 17.6,53.24 1.31,1.43 2.59,2.89 3.84,4.38 4.67,5.55 8.96,11.45 13.4,17.2 8.7,11.28 18.65,21.01 31.8,27.07 1.36,0.63 2.64,2.17 3.25,3.59 2.8,6.45 6.32,12.16 10.6,17.08 6.26,7.19 14.14,12.69 23.75,16.35 3.09,1.17 4.66,2.68 5.14,5.35 0.11,0.62 0.16,1.31 0.16,2.07 -0.02,4.45 0.49,8.94 1.15,13.35 0.36,2.35 -0.35,3.56 -2.21,4.84 -13.52,9.32 -28.42,13.99 -47.63,13.8 -9.25,0.46 -21.04,-1.36 -31.87,-6.33 -10.96,-5.03 -21.11,-11.55 -30.26,-19.74 -18.09,-16.21 -30.01,-36.48 -39.3,-58.41 -8.4,-19.84 -15.48,-40.25 -23.93,-60.07 z m 154.65,148.9 c -0.46,1.54 -0.65,10.97 -3.68,12.33 -8.71,3.89 -17.37,7.91 -26.3,12.06 6.37,-7.17 12.26,-14.38 16.09,-19.19 4.58,-2.08 9.11,-3.74 11.72,-4.64 0.74,-0.17 1.46,-0.36 2.17,-0.56 z M 149.94,573.9 c -16.03,6.71 -32.93,11 -50.15,13.68 -19.27,3 -38.63,4.93 -58.17,4.35 -1.02,-0.03 -2.04,-0.11 -3.17,-0.18 -0.25,-15.82 1.71,-31.07 6.17,-46.04 8.85,-29.77 24.79,-55.26 46.05,-77.68 9.51,-10.03 19.67,-19.29 30.74,-27.86 1.9,2.67 5.57,7.78 10.14,13.81 h -21.68 c -0.07,0.57 -0.13,1.15 -0.2,1.72 1.48,0.34 2.95,0.93 4.43,0.97 5.4,0.12 10.81,-0.09 16.2,0.1 1.42,0.05 2.51,0.08 3.49,0.14 3.39,4.42 7.14,9.15 10.95,13.69 H 94.08 c -0.02,0.5 -0.03,1 -0.04,1.5 17.7,0.64 35.41,1.29 53.65,1.96 0.39,0.44 0.77,0.88 1.15,1.32 -1.85,2.12 -3.7,3.47 -6.45,3.75 -1.61,1.5 -2.61,3.38 -4.19,4.96 -0.97,2.06 -2.37,3.01 -4.04,3.41 -0.92,0.22 -1.93,0.27 -2.99,0.24 -12.62,-0.38 -25.24,-0.85 -37.87,-0.97 -4.26,-0.04 -8.52,0.87 -12.78,1.34 0,0.43 0,0.87 0,1.3 1.57,0.19 3.14,0.5 4.71,0.54 13.92,0.42 27.87,0.32 41.73,1.45 l -7.92,8 -1.71,1.72 c -0.93,0.21 -1.87,0.35 -2.81,0.36 -10.24,0.07 -20.48,-0.26 -30.72,-0.26 -2.38,0 -4.76,0.72 -7.14,1.11 0.03,0.49 0.07,0.98 0.1,1.48 12.61,0.34 25.21,0.68 37.81,1.03 0.14,0.64 -11.01,12.28 -14.09,12.22 -11.06,-0.18 -22.12,-0.08 -33.19,-0.06 -1.32,0 -2.65,0.14 -3.98,0.22 0.02,0.36 0.03,0.72 0.04,1.09 9.6,0.54 19.2,1.09 28.81,1.63 0.41,-0.01 0.82,-0.04 1.23,-0.05 1.4,-0.05 3.97,-0.65 5.3,0.05 1.77,0.92 0.93,2.17 -0.31,2.97 -0.48,0.68 -1.07,1.23 -1.75,1.66 -0.05,0.06 -0.11,0.12 -0.15,0.17 -1.02,1.21 -2.09,2.36 -3.09,3.58 -0.72,0.87 -1.51,1.71 -2.55,2.13 -2.22,2.37 -5.84,1.8 -8.94,1.69 -5.94,-0.22 -11.96,-0.36 -17.9,-0.79 -0.66,0 -1.31,0 -1.96,0 -1.15,0 -2.3,0.17 -3.44,0.26 0.01,0.4 0.02,0.81 0.04,1.22 9.07,0.69 18.14,1.38 27.79,2.12 -0.52,0.57 -1.06,1.06 -1.6,1.48 -0.06,0.13 -0.14,0.26 -0.27,0.38 -2.44,2.25 -3.8,4.95 -5.69,7.59 -0.12,0.17 -0.25,0.32 -0.38,0.47 -1.48,2.05 -3.48,3.39 -6.11,3.53 -2.55,0.13 -5.14,0.05 -7.7,-0.23 -0.03,0.22 -0.05,0.44 -0.11,0.66 -0.11,0.41 -0.27,0.78 -0.44,1.13 2.71,0.31 5.45,0.62 8.26,0.93 -0.39,0.82 -10.4,13.6 -11.1,13.6 -0.21,0 -0.37,-0.07 -0.51,-0.15 -0.01,0 -0.02,0 -0.03,0 -4.07,-0.12 -8.18,0.7 -12.25,0.92 0.05,0.4 0.11,0.8 0.16,1.21 3.48,0.21 6.96,0.42 10.88,0.66 -0.47,0.84 -1.02,1.43 -1.61,1.85 -0.04,0.13 -0.1,0.25 -0.2,0.37 -1.62,1.98 -3.07,4.23 -4.99,5.94 -0.06,0.06 -0.14,0.11 -0.21,0.17 -0.77,0.92 -1.58,1.85 -2.2,2.89 -0.74,1.23 -1.16,2.66 -1.71,4 0.45,0.32 0.91,0.63 1.37,0.95 9.07,-10.23 17.04,-21.44 26.21,-32.22 0.42,11.03 -3.03,21.21 -0.99,31.56 0.73,-1.23 1.16,-2.47 1.34,-3.75 1.39,-9.49 2.85,-18.97 4.02,-28.48 0.48,-3.95 1.74,-7.09 4.73,-9.95 5.61,-5.35 10.75,-11.19 16.13,-16.79 2.76,-2.87 5.62,-5.65 8.95,-9 -1.75,20.41 -3.42,39.78 -5.08,59.15 0.54,0.12 1.07,0.23 1.61,0.35 0.57,-1.34 1.46,-2.63 1.66,-4.02 0.76,-5.46 1.44,-10.94 1.92,-16.43 1.1,-12.43 1.72,-24.91 3.2,-37.28 0.68,-5.72 2.8,-11.17 7.1,-15.31 0.29,-0.27 0.58,-0.55 0.89,-0.81 l 9.74,-9.31 c 1.23,-0.3 2.39,-0.73 3.57,-1.15 H 135 c 1.2,-0.44 2.42,-0.88 3.71,-1.19 -2.04,18.74 -4.06,37.26 -6.03,55.8 -0.05,0.44 0.44,0.94 0.67,1.42 0.39,-0.08 0.77,-0.15 1.16,-0.23 0.78,-2.25 2.01,-4.46 2.27,-6.77 1.88,-16.59 3.65,-33.2 5.24,-49.82 0.3,-3.12 1.08,-5.43 3.85,-7.16 1.82,-1.14 3.53,-2.47 5.34,-3.89 3.83,4.2 7.54,7.89 10.79,10.48 1.98,1.58 4.07,3.13 6.23,4.64 -1.65,14.77 -3.45,29.51 -5.01,44.29 -0.57,5.46 -0.58,10.98 -0.84,16.47 0.5,0.13 0.99,0.26 1.49,0.39 0.44,-1.32 1.13,-2.62 1.28,-3.97 2.08,-18.15 4.1,-36.33 6.19,-55.08 6.94,4.56 14.5,8.6 21.85,11.64 0.39,2.05 0.11,4.68 -0.53,8.62 -0.49,2.99 -0.91,5.98 -1.24,8.98 -0.09,0.92 0.23,1.88 0.82,2.85 4.61,-5.79 3.71,-12.83 4.57,-19.03 6.57,2.43 12.85,3.96 18.19,4.2 5.08,0.23 10.6,0.39 16.14,0.3 -6.26,6.97 -12.59,14.21 -19.28,21.12 -17.51,18.12 -38.98,30.39 -61.92,39.98 z m 145.29,59.75 c -12.04,26.22 -28.86,49.17 -49.82,69.05 -2.28,2.16 -4.21,4.69 -6.4,7.17 -10.21,-7.75 -18.92,-15.87 -26.32,-25.29 -18.86,-23.97 -29.15,-51.62 -34.04,-81.4 -1.6,-9.76 -2.35,-19.66 -3.44,-29.51 2.5,-1.46 5.79,-3.43 9.47,-5.73 9.35,-5.86 21.2,-13.95 29.07,-21.69 1.93,-1.9 3.91,-3.94 5.87,-6.04 3.65,-1.71 7.32,-3.38 11,-5.03 7.42,-3.34 14.92,-6.51 22.51,-9.81 0.86,1.74 -0.29,11.29 -2.18,12.16 -12.43,5.73 -24.9,11.34 -37.23,17.26 -9.25,4.44 -18.31,9.28 -27.43,13.97 -0.27,0.14 -0.54,0.3 -0.81,0.46 -0.79,0.48 -1.55,1.04 -2.34,1.55 0.14,0.41 0.29,0.81 0.43,1.22 1.31,-0.31 2.7,-0.42 3.9,-0.97 20.35,-9.26 40.68,-18.58 61.01,-27.89 1.18,-0.54 2.39,-1.02 3.77,-1.6 0.93,2.5 -0.37,14.39 -2.91,15.54 -19.78,8.91 -39.52,17.93 -59.25,26.97 -2.05,0.94 -3.94,2.22 -5.67,3.77 12.04,-2.63 22.93,-8.03 33.94,-13.15 11.05,-5.13 22.13,-10.19 33.26,-15.3 0.17,0.53 0.22,1.45 0.16,2.59 -0.23,4.58 -2.11,12.71 -4.33,13.69 -15.3,6.7 -30.53,13.55 -45.73,20.48 -5.08,2.31 -9.99,5 -14.98,7.52 l 0.51,1.53 c 1.3,-0.27 2.7,-0.31 3.89,-0.83 18.3,-8.05 36.57,-16.17 54.87,-24.22 0.9,-0.39 1.86,-0.64 2.9,-0.88 l -0.8,15.67 c -0.33,0.3 -0.65,0.57 -1.01,0.76 -8.17,4.23 -16.32,8.51 -24.59,12.52 -8.76,4.24 -17.65,8.19 -26.46,12.32 -1.17,0.55 -2.18,1.43 -3.26,2.16 0.27,0.53 0.54,1.06 0.82,1.59 18,-7.69 36.01,-15.38 54.03,-23.09 0.91,1.66 0.24,12.83 -3.32,14.9 -14.42,8.41 -30.34,13.96 -45.49,20.97 -1.06,0.49 -2.05,1.15 -3.06,1.73 l 0.5,0.99 c 17.32,-4.42 32.66,-13.8 49.16,-20.48 0.39,1.01 0.56,4.56 0.23,8.19 -0.37,4.03 -1.36,8.16 -3.36,9.02 -8.32,3.59 -16.48,7.57 -24.63,11.55 -4.67,2.28 -9.19,4.87 -13.78,7.32 0.1,0.36 0.2,0.73 0.3,1.1 1.21,-0.19 2.51,-0.14 3.61,-0.6 5.1,-2.11 10.14,-4.38 15.21,-6.57 6.93,-3 13.87,-5.98 20.85,-9 0.75,2.59 -0.84,14.56 -3.4,15.43 -3.22,1.1 -6.37,2.51 -9.4,4.08 -4.85,2.5 -9.57,5.24 -14.35,7.88 0.24,0.54 0.48,1.08 0.72,1.62 8.23,-3.25 16.47,-6.51 25.07,-9.91 -0.25,1.29 -1.62,12.73 -2.46,13.9 -2.59,3.64 -9.29,5.18 -13.15,7.43 0.23,0.54 0.45,1.08 0.68,1.62 4.2,-1.33 8.4,-2.66 13.1,-4.15 0,1.44 -1.48,17.04 -1.48,17.04 0.38,0.03 0.76,0.06 1.14,0.09 3.99,-7.61 3.5,-16.12 3.85,-25.3 3.47,4.13 6.27,7.46 9.06,10.79 0.76,-1.34 0.96,-2.45 0.52,-3.2 -1.65,-2.8 -3.24,-5.71 -5.38,-8.12 -1.99,-2.25 -3.01,-4.51 -2.7,-7.46 0.58,-5.71 1.11,-11.43 1.74,-17.91 2.57,3.21 4.91,6.14 7.26,9.08 2.42,3.04 4.84,6.08 7.26,9.13 0.38,-0.13 0.76,-0.27 1.14,-0.4 -0.17,-0.98 -0.07,-2.14 -0.56,-2.93 -1.86,-3.02 -3.89,-5.94 -5.92,-8.86 -7.71,-11.11 -9.05,-13.03 -8.23,-22.49 0.17,-1.99 0.44,-4.3 0.76,-7.11 0.23,-1.96 0.36,-3.93 0.58,-5.89 0.24,-2.09 0.53,-4.18 0.8,-6.28 0.35,-0.08 0.69,-0.16 1.04,-0.24 8.37,11.85 16.73,23.7 25.1,35.55 0.5,-0.32 1.01,-0.64 1.51,-0.96 -1.3,-2.49 -2.49,-5.04 -3.9,-7.46 -7.61,-13.09 -19.81,-23.46 -23.69,-38.56 l 0.18,-1.45 2.83,-22.28 c 7.95,10.97 15.71,21.67 23.47,32.37 0.46,-0.18 0.91,-0.36 1.37,-0.54 -0.42,-1.16 -0.64,-2.45 -1.3,-3.45 -6.89,-10.44 -13.92,-20.78 -20.72,-31.28 -1.11,-1.72 -1.83,-4.08 -1.76,-6.11 0.02,-0.63 0.04,-1.27 0.07,-1.9 0.29,-7.38 0.87,-14.74 1.35,-22.11 0.06,-0.86 0.29,-1.71 0.55,-3.18 14.03,19.71 25.53,40.37 42.18,57.52 -0.82,-1.86 -1.37,-3.91 -2.5,-5.56 -12.36,-18.02 -24.89,-35.92 -37.1,-54.04 -1.61,-2.39 -2.34,-5.84 -2.31,-8.79 0.08,-5.63 0.57,-11.28 1.26,-16.89 0.87,-0.31 1.72,-0.64 2.53,-1.01 2.18,-0.98 4.03,-1.81 5.6,-2.51 8.81,12.33 17.44,24.79 26.29,37.09 3.04,4.22 6.62,8.07 9.95,12.08 0.4,-0.3 0.81,-0.6 1.22,-0.91 -11.2,-16.51 -22.4,-33.04 -33.82,-49.87 3.83,-1.69 4.76,-2.05 4.76,-2.05 0,0 9.33,27 23,35.34 5.88,3.58 10.81,6.92 16,9.67 0.3,30.3 -5.81,59.31 -18.44,86.81 z m 178.6,24.08 c -9.47,-0.75 -18.24,-1.06 -26.9,-2.2 -48.18,-6.31 -89.55,-27.5 -126.82,-57.91 -0.43,-0.35 -0.83,-0.69 -1.21,-1.04 0.55,-1.57 2.68,-12.08 3.85,-23.33 1.05,-10.09 0.84,-17.84 0.68,-22.23 1.65,0.54 3.38,1.01 5.21,1.42 1.56,10.77 3.15,21.53 4.77,32.29 0.74,4.91 1.56,9.8 2.34,14.69 l 1.48,-0.16 c -1.52,-15.37 -3.04,-30.73 -4.56,-46.07 1.83,0.28 3.77,0.5 5.83,0.64 1.59,0.12 3.15,0.2 4.71,0.27 0,0.01 0,0.01 0,0.01 2.87,17.92 5.59,35.86 8.38,53.79 0.15,0.97 0.51,1.91 1.49,2.76 -1.1,-18.93 -4.08,-37.63 -6.16,-56.43 3.55,0.09 7.03,0.06 10.45,-0.09 1.85,13.39 3.45,26.82 5.32,40.21 0.95,6.76 2.29,13.48 3.5,20.21 0.1,0.57 0.53,1.08 0.81,1.62 0.35,-0.06 0.7,-0.12 1.05,-0.18 -2.1,-20.69 -4.18,-41.39 -6.28,-62.13 3.78,-0.29 7.5,-0.73 11.18,-1.35 0.9,1.04 1.31,2.35 1.48,3.9 1.86,16.07 3.67,32.13 5.69,48.18 0.86,6.9 2.17,13.75 3.3,20.76 2.88,-0.44 2.88,-2.19 2.6,-4.31 -2.74,-20.46 -5.44,-40.93 -8.13,-61.4 -0.07,-0.5 -0.01,-1.02 -0.01,-1.69 2.51,0.26 15.45,10.63 15.85,14.21 1.28,11.62 2.92,23.2 4.58,34.77 0.38,2.65 1.4,5.22 2.12,7.82 0.33,-0.06 0.65,-0.13 0.98,-0.19 -1.49,-13.65 -2.97,-27.3 -4.45,-40.95 2.5,1.14 10.07,6.4 10.08,6.19 1.27,2.03 2.79,3.94 3.76,6.1 4.12,9.22 4.13,19.15 4.99,28.97 0.54,6.2 2.04,12.31 3.55,18.38 2.12,-4.22 1.81,-9.64 -0.26,-21.1 -1.26,-7.01 -2.14,-14.09 -2.69,-21.21 2.51,2.01 9.02,9.22 9.01,8.66 1.23,2.75 3.04,5.39 3.58,8.27 1.62,8.5 2.68,17.1 4.07,25.64 0.44,2.74 1.2,5.44 1.82,8.15 0.5,-0.08 1,-0.16 1.5,-0.25 -0.96,-8.5 -1.93,-17.01 -2.9,-25.52 -0.06,-0.19 -0.08,-0.4 -0.07,-0.61 0,0 0.16,-5.86 0.55,-6.06 0.87,1.56 8.5,10.53 8.82,10.53 0.65,3.75 1.27,7.51 1.98,11.25 0.7,3.73 1.5,7.45 2.26,11.17 0.45,-0.08 0.89,-0.17 1.34,-0.25 v -14.67 c 1.39,2.04 9.45,11.76 10.77,12.85 0.38,-0.37 0.75,-0.73 1.13,-1.1 -3.53,-5.08 -7.05,-10.17 -10.85,-15.66 4.2,0.48 8.16,0.92 12.13,1.36 -3.25,-4.57 -8.23,-4.59 -12.63,-5.74 -3.12,-0.81 -5.46,-2.1 -7.42,-4.65 -1.83,-2.38 -3.75,-4.7 -5.83,-7.17 -1.61,-1.92 -3.31,-3.93 -5.15,-6.14 7.64,1.36 14.12,2.5 20.6,3.65 0.13,-0.6 0.27,-1.2 0.41,-1.81 -3.79,-1.28 -7.53,-2.73 -11.38,-3.82 -7.9,-2.24 -16.12,-3.8 -22.22,-9.71 -0.63,-0.61 -1.24,-1.27 -1.82,-1.98 -1.38,-1.69 -2.68,-3.46 -4.31,-5.57 9.57,1.87 18.51,3.61 27.45,5.35 0.11,-0.41 0.21,-0.82 0.32,-1.23 -18.58,-5.82 -38.07,-9.83 -52.57,-26.42 11.63,2.76 22.19,5.27 32.75,7.78 0.19,-0.62 0.38,-1.25 0.57,-1.87 -14.06,-4.48 -28.14,-8.97 -42.92,-13.68 4.29,-0.88 8.54,-1.99 12.79,-3.37 2.54,-0.82 5.16,-1.73 7.76,-2.67 5.15,1.05 10.27,2.35 15.4,3.52 3.97,0.9 7.86,2.12 11.82,3.05 0.94,0.21 2.03,-0.2 3.05,-0.32 0.09,-0.55 0.19,-1.09 0.28,-1.63 -7.51,-2.47 -15.02,-4.93 -22.9,-7.52 7.59,-2.97 14.29,-5.87 17.81,-7.43 30.8,34.59 43.93,76.57 50.44,122.4 z m 48.28,-218.06 c 6.27,22.09 -0.43,38.84 -19.3,49.96 -4.8,2.82 -9.21,3.6 -14.8,2.42 -10.24,-2.16 -19.57,1.72 -27.92,7.25 -8.2,5.44 -15.66,11.99 -23.76,17.59 -16.27,11.26 -33.32,20.84 -52.19,26.17 -5.28,1.49 -10.71,2.65 -16.3,3.42 -4.26,0.58 -8.46,0.94 -12.61,1.03 -18.88,0.43 -36.5,-4.45 -52.22,-16.69 -10.6,-8.25 -17.28,-19.57 -20.92,-32.29 -2.47,-8.61 -3.62,-17.59 -5.39,-27.36 v -0.01 c -0.13,-0.73 -0.27,-1.47 -0.41,-2.21 15,2.47 28.13,0.43 40.76,-3.86 10.93,-3.71 21.29,-9.06 32.14,-13.06 11.31,-4.17 22.69,-8.64 34.44,-11.01 1.81,-0.36 3.64,-0.62 5.49,-0.81 7.73,-0.76 15.74,-0.16 23.58,-0.23 11.73,-0.1 23.54,0.25 34.17,-5.82 7.59,-4.33 12.75,-10.69 14.76,-20.18 1.47,0 3.45,0.32 5.27,-0.07 4.6,-0.99 9.16,-2.19 13.67,-3.51 4.54,-1.32 8.98,-2.95 13.5,-4.31 0.33,-0.1 0.66,-0.19 0.99,-0.26 h 0.01 c 6.47,-1.46 12.12,2.12 14.82,7.06 4.7,8.6 9.57,17.43 12.22,26.78 z m 30,-72.21 c -6.59,12.39 -18.1,19.09 -29.64,25.63 -8.91,5.04 -18.26,8.45 -27.87,10.84 -10.35,2.57 -20.99,3.97 -31.7,4.98 -0.59,-2.88 -1.05,-5.67 -1.59,-8.36 -0.41,-2.1 -0.88,-4.14 -1.51,-6.14 -1.43,-4.6 -3.67,-8.94 -5.67,-13.66 5.94,-9.94 12.79,-19.72 17.88,-30.33 7.29,-15.2 10.17,-31.4 1.42,-46.99 -0.27,-0.49 -0.55,-0.97 -0.83,-1.46 v -0.01 c -4.66,-8.12 -10.21,-16.14 -16.96,-22.44 -8.45,-7.88 -16.11,-16.4 -23.36,-25.23 -12.09,-14.72 -23.05,-30.34 -34.72,-45.4 -0.22,-0.29 -0.29,-0.7 -0.87,-2.15 10.34,-1.64 20.32,-3.93 30.41,-4.65 18.61,-1.33 36.72,1.54 53.97,9.01 15.49,6.7 27.91,17.05 37.59,30.85 4.7,6.69 7.41,14.01 9.35,21.91 6.3,25.74 15.35,50.59 26.3,74.68 4.73,10.42 2.78,19.56 -2.2,28.92 z"
     id="path150"
     style="fill:#000000;stroke:none;filter:url(#filter3220)"
     inkscape:connector-curvature="0" /></g><g
   inkscape:groupmode="layer"
   id="layer2"
   inkscape:label="petals"
   style="display:inline"
   transform="translate(25.190316,-57.186736)"><g
     id="g3286"><path
       id="path8"
       d="m 377.39002,297.84 c 0.54,8.85 2.74,19.96 -3.71,29.98 -4.2,6.54 -10.96,9.1 -18.46,9.82 -11.63,1.1 -22,-2.79 -31.77,-8.5 -1.48,-0.87 -1.99,-3.4 -2.95,-5.16 1.5,-0.72 2.93,-1.83 4.5,-2.09 14.86,-2.52 29.39,-5.85 41.55,-15.57 0.95,-0.76 1.9,-1.51 2.84,-2.25 2.84,-2.23 5.61,-4.35 8,-6.23 z"
       inkscape:connector-curvature="0"
       style="fill:url(#linearGradient3320)" /><path
       id="path15"
       d="m 372.24002,279.91 c 4.18,5.98 1.77,11.82 -1,17.47 -0.73,1.49 -2.02,2.7 -3.38,4.45 -3.45,-5.7 -7.34,-10.1 -13.17,-12.2 -1.75,-0.63 -3.79,-0.99 -5.62,-0.78 -4.27,0.5 -8.49,1.41 -12.73,2.16 -0.33,-0.26 -0.66,-0.53 -0.99,-0.79 1.33,-2.52 2.04,-5.98 4.12,-7.39 5.47,-3.69 11.25,-7.41 17.46,-9.39 6.04,-1.92 11.62,1.17 15.31,6.47 z"
       inkscape:connector-curvature="0"
       style="fill:url(#linearGradient3322)" /><path
       id="path22"
       d="m 362.25002,299.96 c 1.43,2.38 1.75,4.26 -1.13,5.75 -2.9,1.5 -5.63,3.4 -8.64,4.64 -5.43,2.25 -12.5,-2.2 -14.45,-8.81 -1.82,-6.21 1.55,-9.5 10.43,-9.51 5.42,0.28 10.47,2.43 13.79,7.93 z"
       inkscape:connector-curvature="0"
       style="fill:url(#linearGradient3324)" /><path
       id="path29"
       d="m 342.02002,310.95 c 0.88,0.72 1.55,1.69 2.76,3.04 -5.09,0.99 -9.63,1.87 -14.54,2.83 -1.18,-3.89 -2.25,-7.52 -3.39,-11.12 -3.3,-10.4 -6.53,-20.82 -10.02,-31.16 -1.04,-3.08 -0.01,-4.58 2.6,-5.89 6.87,-3.43 15.88,-1.12 20.99,5.29 0.5,0.63 0.96,1.29 1.38,2 -7.83,3.85 -9.35,8.65 -9.04,14.41 0.09,1.71 0.34,3.51 0.63,5.39 1.01,6.43 3.79,11.24 8.63,15.21 z"
       inkscape:connector-curvature="0"
       style="fill:url(#linearGradient3326)" /><path
       id="path36"
       d="m 327.18002,317.4 c -3.75,0 -6.63,0.04 -9.51,-0.04 -0.61,-0.02 -1.27,-0.38 -1.81,-0.74 -9.26,-6.26 -17.54,-4.13 -25.34,2.83 -1.26,1.12 -2.79,1.92 -4.66,3.17 -0.31,-3.96 -0.21,-7.52 -0.92,-10.91 -0.18,-0.85 -0.36,-1.69 -0.55,-2.53 -1.7,-7.73 -3.68,-15.39 -5.37,-23.12 -0.29,-1.36 0.09,-3.2 0.84,-4.39 3.66,-5.72 7.66,-11.22 11.32,-16.94 1.31,-2.05 2.47,-4.19 3.64,-6.32 1.17,-2.13 2.36,-4.25 3.73,-6.25 1.01,-1.46 2.09,-2.77 3.26,-3.9 4.68,-4.56 10.64,-6.32 18.07,-4.58 -1.09,1.64 -2.26,3.21 -3.34,4.82 -0.64,0.97 -1.25,1.96 -1.78,2.98 -3.54,6.85 -3.91,14.3 -2.05,21.52 2.32,9 5.54,17.77 8.43,26.61 1.83,5.59 3.78,11.15 6.04,17.79 z"
       inkscape:connector-curvature="0"
       style="fill:url(#linearGradient3328)" /><path
       id="path43"
       d="m 293.02002,257.31 c -5.5,7.35 -10.79,14.42 -16.59,22.15 -1.19,-2.54 -2.05,-4.99 -2.58,-7.38 -1.17,-5.31 -0.69,-10.33 1.56,-15.41 0.39,-0.88 1.37,-2.03 2.16,-2.11 5.02,-0.47 10.2,-1.46 15.45,2.75 z"
       inkscape:connector-curvature="0"
       style="fill:url(#linearGradient3330)" /><path
       id="path50"
       d="m 281.54002,309.8 c 1.1,4.73 0.84,9.78 1.18,14.44 -8.8,-7.04 -17.47,-13.71 -25.83,-20.74 -3.51,-2.95 -5.72,-6.13 -6.61,-9.56 -0.95,-3.68 -0.37,-7.64 1.76,-11.88 1.57,-3.14 4.79,-5.44 7.23,-8.14 1.23,-1.37 2.46,-2.75 3.68,-4.11 2.23,-2.49 4.43,-4.96 6.57,-7.36 0.71,3.19 1.4,6.63 2.2,10.12 0.39,1.75 0.81,3.52 1.27,5.28 2.79,10.67 6.05,21.22 8.55,31.95 z"
       inkscape:connector-curvature="0"
       style="fill:url(#linearGradient3332)" /><path
       id="path57"
       d="m 315.56002,266.69 c -1.37,-4.91 0.23,-11.71 3.39,-16.42 1.09,-1.62 2.36,-2.99 3.75,-3.95 5.38,-3.71 16.01,-3.34 21.25,1.1 1.69,1.43 2.89,3.7 3.75,5.8 2.04,4.96 4.84,6.71 9.46,4.25 4.92,-2.62 9.72,-3.75 14.44,-3.86 8.59,-0.2 16.91,2.98 25.12,6.67 5.03,2.26 8.62,6.16 11.36,10.66 1.24,2.04 2.31,4.21 3.26,6.4 4.54,10.48 7.38,21.5 4.29,33.01 -0.85,3.14 -2.27,6.54 -4.47,8.83 -5.44,5.66 -11.48,10.74 -16.49,15.34 0,-1.97 0.05,-5.42 -0.01,-8.87 -0.12,-7.1 -1.84,-13.14 -8.17,-17.78 -2.8,-2.05 -4.22,-6.46 -5.42,-10.08 -1.56,-4.71 -2.03,-9.77 -3.42,-14.56 -3.82,-13.23 -18.81,-18.17 -30.13,-10.2 -0.86,0.61 -2.56,0.26 -3.79,0 -0.33,-0.07 -0.63,-0.31 -0.91,-0.62 -0.29,-0.31 -0.54,-0.67 -0.77,-0.99 -2.89,-4.06 -6.04,-7.53 -11.66,-7.48 -4.89,0.04 -9.77,-0.17 -14.1,2.69 -0.18,0.12 -0.49,0.05 -0.73,0.06 z"
       inkscape:connector-curvature="0"
       style="fill:url(#linearGradient3334)" /><path
       id="path64"
       d="m 415.10002,320.32 c -2.65,12.5 -5.93,23.59 -11.36,34 -7.18,13.77 -16.25,26.05 -27.93,36.38 -2.37,2.09 -4.69,3.43 -7.93,3.67 -6.91,0.53 -13.78,1.43 -21.55,2.27 19.07,-29.14 43.34,-52.49 68.77,-76.32 z"
       inkscape:connector-curvature="0"
       style="fill:url(#linearGradient3336)" /><path
       id="path71"
       d="m 381.50002,309.18 c 8.82,5.19 11.65,14.23 8.05,24.37 -2.72,7.68 -7.09,14.31 -12.7,20.22 -7.79,8.2 -15.51,16.46 -22.95,24.97 -2.47,2.82 -4.1,6.41 -5.93,9.75 -2.73,5.02 -6.65,8.51 -12.31,9.6 -5.29,1.01 -10.63,1.71 -15.95,2.54 -1.87,0.3 -3.75,0.59 -5.66,0.89 -2.42,0.38 -4.9,0.77 -7.51,1.18 0,-4.42 0.19,-8.97 -0.03,-13.51 -0.97,-20.82 -6.14,-40.23 -19.22,-57.01 -0.85,-1.1 -1.14,-3.83 -0.4,-4.78 4.96,-6.28 11.33,-10.69 19.53,-11.12 5.06,-0.26 9.34,3.27 11.41,7.99 0.29,0.65 0.53,1.32 0.73,2.01 0.68,2.36 1.96,5.34 3.88,6.44 12.75,7.3 26.21,11.49 41.06,7.23 8.82,-2.53 17.76,-14.66 17.99,-24.4 0.05,-1.95 0.01,-3.91 0.01,-6.37 z"
       inkscape:connector-curvature="0"
       style="fill:url(#linearGradient3338)" /><path
       id="path78"
       d="m 301.88002,376.1 c 1.48,9.26 2.2,18.47 1.02,26.38 -6.96,3.03 -13.08,5.49 -19.02,8.34 -7.89,3.78 -11.2,3.78 -16.28,-0.92 -0.89,-0.82 -1.84,-1.79 -2.87,-2.91 -11.08,-12.01 -20.62,-24.97 -26.08,-40.51 -5.3,-15.09 -8.11,-30.28 -6.3,-45.49 0.82,-6.88 2.59,-13.77 5.5,-20.66 2.15,-5.1 5.43,-9.72 8.19,-14.56 0.41,0.14 0.81,0.29 1.21,0.44 -0.23,2.88 0.02,5.49 0.63,7.88 2.01,7.78 7.99,13.21 14.7,18.01 9.01,6.43 16.48,13.78 22.46,22.03 8.73,12.07 14.29,26.07 16.84,41.97 z"
       inkscape:connector-curvature="0"
       style="fill:url(#linearGradient3340)" /><path
       id="path85"
       d="m 458.45002,401.13 c 1.56,7.91 -0.15,15.64 -5.76,23.6 -3.01,4.26 -9.04,7.53 -14.28,8.82 -8.19,2.02 -16.89,2.73 -25.36,2.65 -8.17,-0.08 -16.26,0.23 -24.24,1.07 -15,1.56 -29.65,5 -43.85,11.28 -11.89,5.25 -23.98,10.19 -36.32,14.25 -14.33,4.7 -29.09,5.51 -43.03,-1.48 -6.84,-3.44 -13.24,-7.56 -18.16,-13.22 -2.58,-2.97 -4.75,-6.36 -6.38,-10.29 -0.79,-1.92 -1.74,-3.77 -2.95,-6.37 17.95,-1.39 33.1,-9.04 48.22,-16.78 4.33,-2.21 8.81,-4.13 13.23,-6.15 4.82,-2.19 9.83,-3.41 14.92,-4.22 5.76,-0.93 11.63,-1.35 17.44,-2.11 15.84,-2.08 31.67,-4.15 47.5,-6.26 15.44,-2.06 30.87,-4.16 46.29,-6.34 8.42,-1.2 16.67,-3.62 24.91,-5.47 4.06,5.86 6.74,11.48 7.82,17.02 z"
       inkscape:connector-curvature="0"
       style="fill:url(#linearGradient3342)" /><path
       id="path92"
       d="m 522.11002,439.67 c 6.27,22.09 -0.43,38.84 -19.3,49.96 -4.8,2.82 -9.21,3.6 -14.8,2.42 -10.24,-2.16 -19.57,1.72 -27.92,7.25 -8.2,5.44 -15.66,11.99 -23.76,17.59 -16.27,11.26 -33.32,20.84 -52.19,26.17 -5.28,1.49 -10.71,2.65 -16.3,3.42 -4.26,0.58 -8.46,0.94 -12.61,1.03 -18.88,0.43 -36.5,-4.45 -52.22,-16.69 -10.6,-8.25 -17.28,-19.57 -20.92,-32.29 -2.47,-8.61 -3.62,-17.6 -5.39,-27.37 -0.13,-0.73 -0.27,-1.47 -0.41,-2.21 15,2.47 28.13,0.43 40.76,-3.86 10.93,-3.71 21.29,-9.06 32.14,-13.06 11.31,-4.17 22.69,-8.64 34.44,-11.01 1.81,-0.36 3.64,-0.62 5.49,-0.81 7.73,-0.76 15.74,-0.16 23.58,-0.23 11.73,-0.1 23.54,0.25 34.17,-5.82 7.59,-4.33 12.75,-10.69 14.76,-20.18 1.47,0 3.45,0.32 5.27,-0.07 4.6,-0.99 9.16,-2.19 13.67,-3.51 4.54,-1.32 8.98,-2.95 13.5,-4.31 0.33,-0.1 0.67,-0.19 1,-0.26 6.47,-1.46 12.12,2.12 14.82,7.06 4.7,8.6 9.57,17.43 12.22,26.78 z"
       inkscape:connector-curvature="0"
       style="fill:url(#linearGradient3344)" /><path
       id="path99"
       d="m 554.31002,338.54 c 4.73,10.42 2.78,19.56 -2.2,28.92 -6.59,12.39 -18.1,19.09 -29.64,25.63 -8.91,5.04 -18.26,8.45 -27.87,10.84 -10.35,2.57 -20.99,3.97 -31.7,4.98 -0.59,-2.88 -1.05,-5.67 -1.59,-8.36 -0.41,-2.1 -0.88,-4.14 -1.51,-6.14 -1.43,-4.6 -3.67,-8.94 -5.67,-13.66 5.94,-9.94 12.79,-19.72 17.88,-30.33 7.29,-15.2 10.17,-31.4 1.42,-46.99 -0.27,-0.49 -0.55,-0.98 -0.83,-1.47 -4.66,-8.12 -10.21,-16.14 -16.96,-22.44 -8.45,-7.88 -16.11,-16.4 -23.36,-25.23 -12.09,-14.72 -23.05,-30.34 -34.72,-45.4 -0.22,-0.29 -0.29,-0.7 -0.87,-2.15 10.34,-1.64 20.32,-3.93 30.41,-4.65 18.61,-1.33 36.72,1.54 53.97,9.01 15.49,6.7 27.91,17.05 37.59,30.85 4.7,6.69 7.41,14.01 9.35,21.91 6.3,25.74 15.35,50.59 26.3,74.68 z"
       inkscape:connector-curvature="0"
       style="fill:url(#linearGradient3346)" /><path
       id="path106"
       d="m 474.50002,319.11 c 1.45,17.73 -6.13,32.59 -14.98,47.21 -6.31,10.42 -15.44,15.55 -26.9,17.69 -17.82,3.32 -35.62,6.74 -53.43,10.12 -0.16,-0.31 -0.32,-0.62 -0.48,-0.94 0.58,-0.7 1.07,-1.5 1.75,-2.09 18.66,-16.36 29.54,-37.32 35.92,-60.92 1.37,-5.07 2.88,-10.17 3.54,-15.36 2.16,-16.78 -0.58,-32.27 -9.56,-45.69 -1.98,-2.95 -4.26,-5.8 -6.85,-8.55 -5.86,-6.2 -14.01,-8.8 -22.53,-9.17 -3.14,-0.13 -6.28,-0.23 -9.41,-0.15 -5.26,0.12 -10.48,0.71 -15.61,2.4 -0.86,0.28 -2.47,-0.37 -3.12,-1.12 -1.46,-1.67 -2.43,-3.75 -3.78,-5.52 -4.85,-6.37 -11.75,-8.57 -20.1,-6.16 -4.29,1.24 -8,0.63 -12.16,-1.03 -2.65,-1.05 -6.9,-0.66 -9.32,0.85 -2.5,1.56 -4.81,3.42 -7.13,5.43 -2.33,2 -4.67,4.15 -7.22,6.28 -3.78,-1.73 -8.82,-2.68 -14.16,-1.24 -0.75,0.2 -2.1,-0.35 -2.62,-0.99 -3.97,-4.9 -7.79,-9.92 -11.62,-14.84 1.98,-3.54 4.29,-6.65 6.94,-9.31 4.41,-4.43 9.77,-7.63 16.09,-9.59 9.54,-2.94 19.18,-5.6 28.76,-8.42 8.85,-2.61 16.37,-7.22 23.33,-13.43 11.08,-9.9 29.72,-10.35 40.17,-0.31 0.73,0.71 1.42,1.46 2.07,2.27 15.94,19.91 31.96,39.75 48.17,59.43 2.01,2.45 4.03,4.89 6.05,7.33 9.97,12.05 20.69,23.47 30.85,35.37 1.24,1.45 2.28,2.99 3.15,4.6 2.61,4.84 3.74,10.32 4.19,15.85 z"
       inkscape:connector-curvature="0"
       style="fill:url(#linearGradient3348)" /><path
       id="path113"
       d="m 403.07002,171.17 c 9.17,7.03 16.09,15.76 20.3,27.07 -9.84,1.92 -19.47,3.88 -29.15,5.57 -0.96,0.16 -2.35,-1.2 -3.33,-2.09 -3.05,-2.77 -5.95,-5.75 -8.96,-8.57 -2.34,-2.2 -4.74,-4.31 -7.34,-6.15 -8.37,-5.95 -17.8,-5.23 -26.64,-0.83 -7.74,3.86 -15.19,8.37 -22.54,12.97 -8.84,5.53 -18.22,9.4 -28.55,10.81 -11.32,1.54 -20.05,7.23 -27.4,15.18 -1.06,1.13 -2.08,2.31 -3.08,3.53 -1,1.21 -1.94,2.46 -2.94,3.74 -5.6,-2.96 -10.92,-6.09 -16.5,-8.65 -1.49,-0.69 -2.99,-1.33 -4.49,-1.92 -11.89,-4.69 -24.12,-6.17 -36.14,0.39 -2.99,1.64 -5.76,3.44 -8.3,5.42 -10.99,8.56 -17.63,20.35 -19.42,35.28 -0.41,3.36 -1.08,6.68 -1.67,10.28 -8.13,-4.27 -16.1,-8.05 -23.59,-12.59 -3.08,-1.87 -6.16,-4.99 -7.5,-8.26 -5.26,-12.81 -6.39,-26.09 -1.09,-39.22 4.79,-11.87 14.57,-18.65 25.89,-23.5 6.04,-2.59 12.28,-4.75 18.2,-7.59 3.22,-1.54 6.31,-3.73 8.84,-6.25 12.7,-12.61 25.08,-25.47 40.09,-35.56 17.86,-11.99 36.99,-16.31 57.77,-10.77 7.67,2.04 14.82,6.02 22.19,9.16 3.15,1.34 6.38,2.57 9.34,4.25 12.97,7.34 27.71,8.82 41.69,12.8 12.18,3.47 24.09,7.65 34.32,15.5 z"
       inkscape:connector-curvature="0"
       style="fill:url(#linearGradient3350)" /><path
       id="path120"
       d="m 241.56002,224.14 c 13.55,5.31 25.67,17.2 31.4,27.34 -4.01,5.78 -7.63,11.05 -11.31,16.27 -0.13,0.18 -0.27,0.35 -0.42,0.52 -0.44,0.5 -0.97,0.96 -1.53,1.31 -17.81,11.53 -26.84,28.56 -29.72,48.96 -0.1,0.72 -0.2,1.44 -0.28,2.15 -3.9,32 6.43,59.54 28.43,83.06 2.56,2.74 5.29,5.33 8.04,7.9 1.64,1.55 3.3,3.09 4.92,4.65 -12.32,10.91 -35.75,16.3 -51.1,2.37 -3.85,-3.49 -6.56,-8.23 -10.17,-12.03 -5.96,-6.25 -12.26,-12.18 -18.35,-18.31 -1.4,-1.4 -2.74,-2.88 -4.03,-4.41 -13.67,-16.21 -21.35,-39.29 -19.78,-61.77 0.59,-8.41 2.47,-16.73 5.82,-24.58 3.17,-7.46 4.53,-15.66 6.33,-23.71 0.56,-2.52 1.17,-5.03 1.88,-7.49 2.47,-8.53 4.99,-17.19 8.76,-25.18 2.25,-4.77 5.52,-8.62 9.4,-11.61 8.73,-6.73 20.59,-9.15 31.16,-8.08 3.55,0.36 7.1,1.29 10.55,2.64 z"
       inkscape:connector-curvature="0"
       style="fill:url(#linearGradient3352)" /><path
       id="path127"
       d="m 275.44002,487.04 c 0.36,2.35 -0.35,3.56 -2.21,4.84 -13.52,9.32 -28.42,13.99 -47.63,13.8 -9.25,0.46 -21.04,-1.36 -31.87,-6.33 -10.96,-5.03 -21.11,-11.55 -30.26,-19.74 -18.09,-16.21 -30.01,-36.48 -39.3,-58.41 -8.4,-19.84 -15.48,-40.25 -23.93,-60.07 -5.400001,-12.66 -11.870001,-24.91 -18.560001,-36.95 -3.31,-5.96 -5.46,-11.53 -4.53,-18.51 2.38,-17.85 9.4,-32.17 27.140001,-39.38 8.29,-3.37 16.79,-5.19 25.75,-4.72 15.32,0.79 29.43,5.08 42.04,14.08 2.41,1.72 2.57,3.2 1.69,5.83 -4.45,13.19 -7.83,26.67 -8.77,40.51 -0.13,1.78 -0.21,3.57 -0.25,5.37 -0.42,19.66 3.62,38.06 17.6,53.24 1.31,1.43 2.59,2.89 3.84,4.38 4.67,5.55 8.96,11.45 13.4,17.2 8.7,11.28 18.65,21.01 31.8,27.07 1.36,0.63 2.64,2.17 3.25,3.59 2.8,6.45 6.32,12.16 10.6,17.08 6.26,7.19 14.14,12.69 23.75,16.35 3.09,1.17 4.66,2.68 5.14,5.35 0.11,0.62 0.16,1.31 0.16,2.07 -0.02,4.45 0.49,8.94 1.15,13.35 z"
       inkscape:connector-curvature="0"
       style="fill:url(#linearGradient3354)" /></g></g><g
   inkscape:groupmode="layer"
   id="layer3"
   inkscape:label="leaves"
   style="display:inline"
   transform="translate(25.190316,-57.186736)"><g
     id="g3315"><path
       id="path134"
       d="m 459.12001,640.11 c 0.38,-0.37 0.75,-0.73 1.13,-1.1 -3.53,-5.08 -7.05,-10.17 -10.85,-15.66 4.2,0.48 8.16,0.92 12.13,1.36 -3.25,-4.57 -8.23,-4.59 -12.63,-5.74 -3.12,-0.81 -5.46,-2.1 -7.42,-4.65 -1.83,-2.38 -3.75,-4.7 -5.83,-7.17 -1.61,-1.92 -3.31,-3.93 -5.15,-6.14 7.64,1.36 14.12,2.5 20.6,3.65 0.13,-0.6 0.27,-1.2 0.41,-1.81 -3.79,-1.28 -7.53,-2.73 -11.38,-3.82 -7.9,-2.24 -16.12,-3.8 -22.22,-9.71 -0.63,-0.61 -1.24,-1.27 -1.82,-1.98 -1.38,-1.69 -2.68,-3.46 -4.31,-5.57 9.57,1.87 18.51,3.61 27.45,5.35 0.11,-0.41 0.21,-0.82 0.32,-1.23 -18.58,-5.82 -38.07,-9.83 -52.57,-26.42 11.63,2.76 22.19,5.27 32.75,7.78 0.19,-0.62 0.38,-1.25 0.57,-1.87 -14.06,-4.48 -28.14,-8.97 -42.92,-13.68 4.29,-0.88 8.54,-1.99 12.79,-3.37 2.54,-0.82 5.16,-1.73 7.76,-2.67 5.15,1.05 10.27,2.35 15.4,3.52 3.97,0.9 7.86,2.12 11.82,3.05 0.94,0.21 2.03,-0.2 3.05,-0.32 0.09,-0.55 0.19,-1.09 0.28,-1.63 -7.51,-2.47 -15.02,-4.93 -22.9,-7.52 7.59,-2.97 14.29,-5.87 17.81,-7.43 30.8,34.59 43.93,76.57 50.44,122.4 -9.47,-0.75 -18.24,-1.06 -26.9,-2.2 -48.18,-6.31 -89.55,-27.5 -126.82,-57.91 -0.43,-0.35 -0.83,-0.69 -1.21,-1.04 0.55,-1.57 2.68,-12.08 3.85,-23.33 1.05,-10.09 0.84,-17.84 0.68,-22.23 1.65,0.54 3.38,1.01 5.21,1.42 1.56,10.77 3.15,21.53 4.77,32.29 0.74,4.91 1.56,9.8 2.34,14.69 l 1.48,-0.16 c -1.52,-15.37 -3.04,-30.73 -4.56,-46.07 1.83,0.28 3.77,0.5 5.83,0.64 1.59,0.12 3.15,0.2 4.71,0.27 0,0.01 0,0.01 0,0.01 2.87,17.92 5.59,35.86 8.38,53.79 0.15,0.97 0.51,1.91 1.49,2.76 -1.1,-18.93 -4.08,-37.63 -6.16,-56.43 3.55,0.09 7.03,0.06 10.45,-0.09 1.85,13.39 3.45,26.82 5.32,40.21 0.95,6.76 2.29,13.48 3.5,20.21 0.1,0.57 0.53,1.08 0.81,1.62 0.35,-0.06 0.7,-0.12 1.05,-0.18 -2.1,-20.69 -4.18,-41.39 -6.28,-62.13 3.78,-0.29 7.5,-0.73 11.18,-1.35 0.9,1.04 1.31,2.35 1.48,3.9 1.86,16.07 3.67,32.13 5.69,48.18 0.86,6.9 2.17,13.75 3.3,20.76 2.88,-0.44 2.88,-2.19 2.6,-4.31 -2.74,-20.46 -5.44,-40.93 -8.13,-61.4 -0.07,-0.5 -0.01,-1.02 -0.01,-1.69 2.51,0.26 15.45,10.63 15.85,14.21 1.28,11.62 2.92,23.2 4.58,34.77 0.38,2.65 1.4,5.22 2.12,7.82 0.33,-0.06 0.65,-0.13 0.98,-0.19 -1.49,-13.65 -2.97,-27.3 -4.45,-40.95 2.5,1.14 10.07,6.4 10.08,6.19 1.27,2.03 2.79,3.94 3.76,6.1 4.12,9.22 4.13,19.15 4.99,28.97 0.54,6.2 2.04,12.31 3.55,18.38 2.12,-4.22 1.81,-9.64 -0.26,-21.1 -1.26,-7.01 -2.14,-14.09 -2.69,-21.21 2.51,2.01 9.02,9.22 9.01,8.66 1.23,2.75 3.04,5.39 3.58,8.27 1.62,8.5 2.68,17.1 4.07,25.64 0.44,2.74 1.2,5.44 1.82,8.15 0.5,-0.08 1,-0.16 1.5,-0.25 -0.96,-8.5 -1.93,-17.01 -2.9,-25.52 -0.06,-0.19 -0.08,-0.4 -0.07,-0.61 0,0 0.16,-5.86 0.55,-6.06 0.87,1.56 8.5,10.53 8.82,10.53 0.65,3.75 1.27,7.51 1.98,11.25 0.7,3.73 1.5,7.45 2.26,11.17 0.45,-0.08 0.89,-0.17 1.34,-0.25 v -14.67 c 1.39,2.04 9.45,11.76 10.77,12.85 z"
       inkscape:connector-curvature="0"
       style="fill:url(#radialGradient3356)" /><path
       id="path141"
       d="m 254.89001,510.03 c -0.71,0.2 -1.43,0.39 -2.17,0.56 -2.61,0.9 -7.14,2.56 -11.72,4.64 -3.83,4.81 -9.72,12.02 -16.09,19.19 8.93,-4.15 17.59,-8.17 26.3,-12.06 3.03,-1.36 3.22,-10.79 3.68,-12.33 z m 42.78,27.14 c -13.67,-8.34 -23,-35.34 -23,-35.34 0,0 -0.93,0.36 -4.76,2.05 11.42,16.83 22.62,33.36 33.82,49.87 -0.41,0.31 -0.82,0.61 -1.22,0.91 -3.33,-4.01 -6.91,-7.86 -9.95,-12.08 -8.85,-12.3 -17.48,-24.76 -26.29,-37.09 -1.57,0.7 -3.42,1.53 -5.6,2.51 -0.81,0.37 -1.66,0.7 -2.53,1.01 -0.69,5.61 -1.18,11.26 -1.26,16.89 -0.03,2.95 0.7,6.4 2.31,8.79 12.21,18.12 24.74,36.02 37.1,54.04 1.13,1.65 1.68,3.7 2.5,5.56 -16.65,-17.15 -28.15,-37.81 -42.18,-57.52 -0.26,1.47 -0.49,2.32 -0.55,3.18 -0.48,7.37 -1.06,14.73 -1.35,22.11 -0.03,0.63 -0.05,1.27 -0.07,1.9 -0.07,2.03 0.65,4.39 1.76,6.11 6.8,10.5 13.83,20.84 20.72,31.28 0.66,1 0.88,2.29 1.3,3.45 -0.46,0.18 -0.91,0.36 -1.37,0.54 -7.76,-10.7 -15.52,-21.4 -23.47,-32.37 l -2.83,22.28 -0.18,1.45 c 3.88,15.1 16.08,25.47 23.69,38.56 1.41,2.42 2.6,4.97 3.9,7.46 -0.5,0.32 -1.01,0.64 -1.51,0.96 -8.37,-11.85 -16.73,-23.7 -25.1,-35.55 -0.35,0.08 -0.69,0.16 -1.04,0.24 -0.27,2.1 -0.56,4.19 -0.8,6.28 -0.22,1.96 -0.35,3.93 -0.58,5.89 -0.32,2.81 -0.59,5.12 -0.76,7.11 -0.82,9.46 0.52,11.38 8.23,22.49 2.03,2.92 4.06,5.84 5.92,8.86 0.49,0.79 0.39,1.95 0.56,2.93 -0.38,0.13 -0.76,0.27 -1.14,0.4 -2.42,-3.05 -4.84,-6.09 -7.26,-9.13 -2.35,-2.94 -4.69,-5.87 -7.26,-9.08 -0.63,6.48 -1.16,12.2 -1.74,17.91 -0.31,2.95 0.71,5.21 2.7,7.46 2.14,2.41 3.73,5.32 5.38,8.12 0.44,0.75 0.24,1.86 -0.52,3.2 -2.79,-3.33 -5.59,-6.66 -9.06,-10.79 -0.35,9.18 0.14,17.69 -3.85,25.3 -0.38,-0.03 -0.76,-0.06 -1.14,-0.09 0,0 1.48,-15.6 1.48,-17.04 -4.7,1.49 -8.9,2.82 -13.1,4.15 -0.23,-0.54 -0.45,-1.08 -0.68,-1.62 3.86,-2.25 10.56,-3.79 13.15,-7.43 0.84,-1.17 2.21,-12.61 2.46,-13.9 -8.6,3.4 -16.84,6.66 -25.07,9.91 -0.24,-0.54 -0.48,-1.08 -0.72,-1.62 4.78,-2.64 9.5,-5.38 14.35,-7.88 3.03,-1.57 6.18,-2.98 9.4,-4.08 2.56,-0.87 4.15,-12.84 3.4,-15.43 -6.98,3.02 -13.92,6 -20.85,9 -5.07,2.19 -10.11,4.46 -15.21,6.57 -1.1,0.46 -2.4,0.41 -3.61,0.6 -0.1,-0.37 -0.2,-0.74 -0.3,-1.1 4.59,-2.45 9.11,-5.04 13.78,-7.32 8.15,-3.98 16.31,-7.96 24.63,-11.55 2,-0.86 2.99,-4.99 3.36,-9.02 0.33,-3.63 0.16,-7.18 -0.23,-8.19 -16.5,6.68 -31.84,16.06 -49.16,20.48 l -0.5,-0.99 c 1.01,-0.58 2,-1.24 3.06,-1.73 15.15,-7.01 31.07,-12.56 45.49,-20.97 3.56,-2.07 4.23,-13.24 3.32,-14.9 -18.02,7.71 -36.03,15.4 -54.03,23.09 -0.28,-0.53 -0.55,-1.06 -0.82,-1.59 1.08,-0.73 2.09,-1.61 3.26,-2.16 8.81,-4.13 17.7,-8.08 26.46,-12.32 8.27,-4.01 16.42,-8.29 24.59,-12.52 0.36,-0.19 0.68,-0.46 1.01,-0.76 l 0.8,-15.67 c -1.04,0.24 -2,0.49 -2.9,0.88 -18.3,8.05 -36.57,16.17 -54.87,24.22 -1.19,0.52 -2.59,0.56 -3.89,0.83 l -0.51,-1.53 c 4.99,-2.52 9.9,-5.21 14.98,-7.52 15.2,-6.93 30.43,-13.78 45.73,-20.48 2.22,-0.98 4.1,-9.11 4.33,-13.69 0.06,-1.14 0.01,-2.06 -0.16,-2.59 -11.13,5.11 -22.21,10.17 -33.26,15.3 -11.01,5.12 -21.9,10.52 -33.94,13.15 1.73,-1.55 3.62,-2.83 5.67,-3.77 19.73,-9.04 39.47,-18.06 59.25,-26.97 2.54,-1.15 3.84,-13.04 2.91,-15.54 -1.38,0.58 -2.59,1.06 -3.77,1.6 -20.33,9.31 -40.66,18.63 -61.01,27.89 -1.2,0.55 -2.59,0.66 -3.9,0.97 -0.14,-0.41 -0.29,-0.81 -0.43,-1.22 0.79,-0.51 1.55,-1.07 2.34,-1.55 0.27,-0.16 0.54,-0.32 0.81,-0.46 9.12,-4.69 18.18,-9.53 27.43,-13.97 12.33,-5.92 24.8,-11.53 37.23,-17.26 1.89,-0.87 3.04,-10.42 2.18,-12.16 -7.59,3.3 -15.09,6.47 -22.51,9.81 -3.68,1.65 -7.35,3.32 -11,5.03 -1.96,2.1 -3.94,4.14 -5.87,6.04 -7.87,7.74 -19.72,15.83 -29.07,21.69 -3.68,2.3 -6.97,4.27 -9.47,5.73 1.09,9.85 1.84,19.75 3.44,29.51 4.89,29.78 15.18,57.43 34.04,81.4 7.4,9.42 16.11,17.54 26.32,25.29 2.19,-2.48 4.12,-5.01 6.4,-7.17 20.96,-19.88 37.78,-42.83 49.82,-69.05 12.63,-27.5 18.74,-56.51 18.44,-86.81 -5.19,-2.75 -10.12,-6.09 -16,-9.67 z"
       inkscape:connector-curvature="0"
       style="fill:url(#radialGradient3358)" /><path
       id="path148"
       d="m 215.00001,512.5 c 5.08,0.23 10.6,0.39 16.14,0.3 -6.26,6.97 -12.59,14.21 -19.28,21.12 -17.51,18.12 -38.98,30.39 -61.92,39.98 -16.03,6.71 -32.93,11 -50.150001,13.68 -19.27,3 -38.63,4.93 -58.17,4.35 -1.02,-0.03 -2.04,-0.11 -3.17,-0.18 -0.25,-15.82 1.71,-31.07 6.17,-46.04 8.85,-29.77 24.79,-55.26 46.05,-77.68 9.510001,-10.03 19.670001,-19.29 30.740001,-27.86 1.9,2.67 5.57,7.78 10.14,13.81 h -21.68 c -0.07,0.57 -0.13,1.15 -0.2,1.72 1.48,0.34 2.95,0.93 4.43,0.97 5.4,0.12 10.81,-0.09 16.2,0.1 1.42,0.05 2.51,0.08 3.49,0.14 3.39,4.42 7.14,9.15 10.95,13.69 H 94.080009 c -0.02,0.5 -0.03,1 -0.04,1.5 17.700001,0.64 35.410001,1.29 53.650001,1.96 0.39,0.44 0.77,0.88 1.15,1.32 -1.85,2.12 -3.7,3.47 -6.45,3.75 -1.61,1.5 -2.61,3.38 -4.19,4.96 -0.97,2.06 -2.37,3.01 -4.04,3.41 -0.92,0.22 -1.93,0.27 -2.99,0.24 -12.62,-0.38 -25.24,-0.85 -37.870001,-0.97 -4.26,-0.04 -8.52,0.87 -12.78,1.34 0,0.43 0,0.87 0,1.3 1.57,0.19 3.14,0.5 4.71,0.54 13.92,0.42 27.870001,0.32 41.730001,1.45 l -7.92,8 -1.71,1.72 c -0.93,0.21 -1.87,0.35 -2.81,0.36 -10.24,0.07 -20.480001,-0.26 -30.720001,-0.26 -2.38,0 -4.76,0.72 -7.14,1.11 0.03,0.49 0.07,0.98 0.1,1.48 12.61,0.34 25.210001,0.68 37.810001,1.03 0.14,0.64 -11.01,12.28 -14.09,12.22 -11.060001,-0.18 -22.120001,-0.08 -33.190001,-0.06 -1.32,0 -2.65,0.14 -3.98,0.22 0.02,0.36 0.03,0.72 0.04,1.09 9.6,0.54 19.2,1.09 28.81,1.63 0.41,-0.01 0.82,-0.04 1.23,-0.05 1.4,-0.05 3.97,-0.65 5.3,0.05 1.770001,0.92 0.93,2.17 -0.31,2.97 -0.48,0.68 -1.07,1.23 -1.75,1.66 -0.05,0.06 -0.11,0.12 -0.15,0.17 -1.02,1.21 -2.09,2.36 -3.09,3.58 -0.72,0.87 -1.51,1.71 -2.55,2.13 -2.22,2.37 -5.84,1.8 -8.94,1.69 -5.94,-0.22 -11.96,-0.36 -17.9,-0.79 -0.66,0 -1.31,0 -1.96,0 -1.15,0 -2.3,0.17 -3.44,0.26 0.01,0.4 0.02,0.81 0.04,1.22 9.07,0.69 18.14,1.38 27.79,2.12 -0.52,0.57 -1.06,1.06 -1.6,1.48 -0.06,0.13 -0.14,0.26 -0.27,0.38 -2.44,2.25 -3.8,4.95 -5.69,7.59 -0.12,0.17 -0.25,0.32 -0.38,0.47 -1.48,2.05 -3.48,3.39 -6.11,3.53 -2.55,0.13 -5.14,0.05 -7.7,-0.23 -0.03,0.22 -0.05,0.44 -0.11,0.66 -0.11,0.41 -0.27,0.78 -0.44,1.13 2.71,0.31 5.45,0.62 8.26,0.93 -0.39,0.82 -10.4,13.6 -11.1,13.6 -0.21,0 -0.37,-0.07 -0.51,-0.15 -0.01,0 -0.02,0 -0.03,0 -4.07,-0.12 -8.18,0.7 -12.25,0.92 0.05,0.4 0.11,0.8 0.16,1.21 3.48,0.21 6.96,0.42 10.88,0.66 -0.47,0.84 -1.02,1.43 -1.61,1.85 -0.04,0.13 -0.1,0.25 -0.2,0.37 -1.62,1.98 -3.07,4.23 -4.99,5.94 -0.06,0.06 -0.14,0.11 -0.21,0.17 -0.77,0.92 -1.58,1.85 -2.2,2.89 -0.74,1.23 -1.16,2.66 -1.71,4 0.45,0.32 0.91,0.63 1.37,0.95 9.07,-10.23 17.04,-21.44 26.21,-32.22 0.42,11.03 -3.03,21.21 -0.99,31.56 0.73,-1.23 1.16,-2.47 1.34,-3.75 1.39,-9.49 2.85,-18.97 4.02,-28.48 0.48,-3.95 1.74,-7.09 4.73,-9.95 5.61,-5.35 10.75,-11.19 16.130001,-16.79 2.76,-2.87 5.62,-5.65 8.95,-9 -1.75,20.41 -3.42,39.78 -5.08,59.15 0.54,0.12 1.07,0.23 1.61,0.35 0.57,-1.34 1.46,-2.63 1.66,-4.02 0.76,-5.46 1.44,-10.94 1.92,-16.43 1.1,-12.43 1.72,-24.91 3.2,-37.28 0.68,-5.72 2.8,-11.17 7.1,-15.31 0.29,-0.27 0.58,-0.55 0.89,-0.81 l 9.74,-9.31 c 1.23,-0.3 2.39,-0.73 3.57,-1.15 h 0.01 c 1.2,-0.44 2.42,-0.88 3.71,-1.19 -2.04,18.74 -4.06,37.26 -6.03,55.8 -0.05,0.44 0.44,0.94 0.67,1.42 0.39,-0.08 0.77,-0.15 1.16,-0.23 0.78,-2.25 2.01,-4.46 2.27,-6.77 1.88,-16.59 3.65,-33.2 5.24,-49.82 0.3,-3.12 1.08,-5.43 3.85,-7.16 1.82,-1.14 3.53,-2.47 5.34,-3.89 3.83,4.2 7.54,7.89 10.79,10.48 1.98,1.58 4.07,3.13 6.23,4.64 -1.65,14.77 -3.45,29.51 -5.01,44.29 -0.57,5.46 -0.58,10.98 -0.84,16.47 0.5,0.13 0.99,0.26 1.49,0.39 0.44,-1.32 1.13,-2.62 1.28,-3.97 2.08,-18.15 4.1,-36.33 6.19,-55.08 6.94,4.56 14.5,8.6 21.85,11.64 0.39,2.05 0.11,4.68 -0.53,8.62 -0.49,2.99 -0.91,5.98 -1.24,8.98 -0.09,0.92 0.23,1.88 0.82,2.85 4.61,-5.79 3.71,-12.83 4.57,-19.03 6.57,2.43 12.85,3.96 18.19,4.2 z"
       inkscape:connector-curvature="0"
       style="fill:url(#radialGradient3360)" /></g></g></svg>